<svg version="1.1" xmlns="http://www.w3.org/2000/svg" xmlns:xlink="http://www.w3.org/1999/xlink" width="1333" height="1476"><defs/><g><g transform="translate(-166,-110) scale(1,1)"><path fill="#ffff00" stroke="none" d="M 600.5 656 L 655.13720703125 656 Q 671.63720703125 656 671.63720703125 672.5 L 671.63720703125 671.5 Q 671.63720703125 688 655.13720703125 688 L 600.5 688 Q 584 688 584 671.5 L 584 672.5 Q 584 656 600.5 656 Z"/></g><g transform="translate(-166,-110) scale(1,1)"><path fill="none" stroke="#000000" d="M 600.5 656 L 655.13720703125 656 Q 671.63720703125 656 671.63720703125 672.5 L 671.63720703125 671.5 Q 671.63720703125 688 655.13720703125 688 L 600.5 688 Q 584 688 584 671.5 L 584 672.5 Q 584 656 600.5 656 Z" stroke-miterlimit="10"/></g><g transform="translate(-166,-110) scale(1,1)"><g><path fill="none" stroke="none"/><text fill="#000000" stroke="none" font-family="Arial" font-size="13px" font-style="normal" font-weight="normal" text-decoration="none" x="608.318603515625" y="677.5">业务员</text></g></g><g transform="translate(-166,-110) scale(1,1)"><rect fill="#d8fff8" stroke="none" x="848" y="656" width="123" height="32"/></g><g transform="translate(-166,-110) scale(1,1)"><path fill="none" stroke="#000000" d="M 848 656 L 971 656 L 971 688 L 848 688 L 848 656 Z Z" stroke-miterlimit="10"/></g><g transform="translate(-166,-110) scale(1,1)"><g><path fill="none" stroke="none"/><text fill="#000000" stroke="none" font-family="Arial" font-size="13px" font-style="normal" font-weight="normal" text-decoration="none" x="857.5" y="677.5">个人信息管理系统</text></g></g><g transform="translate(-166,-110) scale(1,1)"><rect fill="#d8fff8" stroke="none" x="720" y="744" width="97" height="32"/></g><g transform="translate(-166,-110) scale(1,1)"><path fill="none" stroke="#000000" d="M 720 744 L 817 744 L 817 776 L 720 776 L 720 744 Z Z" stroke-miterlimit="10"/></g><g transform="translate(-166,-110) scale(1,1)"><g><path fill="none" stroke="none"/><text fill="#000000" stroke="none" font-family="Arial" font-size="13px" font-style="normal" font-weight="normal" text-decoration="none" x="729.5" y="765.5">客户管理系统</text></g></g><g transform="translate(-166,-110) scale(1,1)"><rect fill="#d8fff8" stroke="none" x="720" y="584" width="97" height="32"/></g><g transform="translate(-166,-110) scale(1,1)"><path fill="none" stroke="#000000" d="M 720 584 L 817 584 L 817 616 L 720 616 L 720 584 Z Z" stroke-miterlimit="10"/></g><g transform="translate(-166,-110) scale(1,1)"><g><path fill="none" stroke="none"/><text fill="#000000" stroke="none" font-family="Arial" font-size="13px" font-style="normal" font-weight="normal" text-decoration="none" x="729.5" y="605.5">基金管理系统</text></g></g><g transform="translate(-166,-110) scale(1,1)"><rect fill="#ffffff" stroke="none" x="392" y="512" width="97" height="32"/></g><g transform="translate(-166,-110) scale(1,1)"><path fill="none" stroke="#000000" d="M 392 512 L 489 512 L 489 544 L 392 544 L 392 512 Z Z" stroke-miterlimit="10"/></g><g transform="translate(-166,-110) scale(1,1)"><g><path fill="none" stroke="none"/><text fill="#000000" stroke="none" font-family="Arial" font-size="13px" font-style="normal" font-weight="normal" text-decoration="none" x="401.5" y="533.5">业务操作系统</text></g></g><g transform="translate(-166,-110) scale(1,1)"><rect fill="#ffffff" stroke="none" x="1008" y="552" width="97" height="32"/></g><g transform="translate(-166,-110) scale(1,1)"><path fill="none" stroke="#000000" d="M 1008 552 L 1105 552 L 1105 584 L 1008 584 L 1008 552 Z Z" stroke-miterlimit="10"/></g><g transform="translate(-166,-110) scale(1,1)"><g><path fill="none" stroke="none"/><text fill="#000000" stroke="none" font-family="Arial" font-size="13px" font-style="normal" font-weight="normal" text-decoration="none" x="1017.5" y="573.5">查看个人信息</text></g></g><g transform="translate(-166,-110) scale(1,1)"><path fill="#d8ffd8" stroke="none" d="M 1000 671.5 L 1056.58447265625 640 L 1113.1689453125 671.5 L 1056.58447265625 703 L 1000 671.5"/></g><g transform="translate(-166,-110) scale(1,1)"><path fill="none" stroke="#000000" d="M 1000 671.5 L 1056.58447265625 640 L 1113.1689453125 671.5 L 1056.58447265625 703 L 1000 671.5 L 1000 671.5" stroke-miterlimit="10"/></g><g transform="translate(-166,-110) scale(1,1)"><g><path fill="none" stroke="none"/><text fill="#000000" stroke="none" font-family="Arial" font-size="13px" font-style="normal" font-weight="normal" text-decoration="none" x="1030.58447265625" y="677">个人主页</text></g></g><g transform="translate(-166,-110) scale(1,1)"><path fill="none" stroke="#000000" d="M 971 672 L 1000 672" stroke-miterlimit="10"/></g><g transform="translate(-166,-110) scale(1,1)"><path fill="#000000" stroke="none" d="M 989.8373251423759 676.209517756016 L 1000 672 L 989.8373251423758 667.790482243984"/></g><g transform="translate(-166,-110) scale(1,1)"><path fill="none" stroke="#000000" d="M 989.8373251423759 676.209517756016 L 1000 672 L 989.8373251423758 667.790482243984 L 989.8373251423759 676.209517756016" stroke-miterlimit="10"/></g><g transform="translate(-166,-110) scale(1,1)"><path fill="none" stroke="#000000" d="M 1056 640 L 1056 584" stroke-miterlimit="10"/></g><g transform="translate(-166,-110) scale(1,1)"><path fill="#000000" stroke="none" d="M 1060.2095177560159 594.1626748576241 L 1056 584 L 1051.7904822439841 594.1626748576241"/></g><g transform="translate(-166,-110) scale(1,1)"><path fill="none" stroke="#000000" d="M 1060.2095177560159 594.1626748576241 L 1056 584 L 1051.7904822439841 594.1626748576241 L 1060.2095177560159 594.1626748576241" stroke-miterlimit="10"/></g><g transform="translate(-166,-110) scale(1,1)"><rect fill="#ffffff" stroke="none" x="1008" y="488" width="97" height="32"/></g><g transform="translate(-166,-110) scale(1,1)"><path fill="none" stroke="#000000" d="M 1008 488 L 1105 488 L 1105 520 L 1008 520 L 1008 488 Z Z" stroke-miterlimit="10"/></g><g transform="translate(-166,-110) scale(1,1)"><g><path fill="none" stroke="none"/><text fill="#000000" stroke="none" font-family="Arial" font-size="13px" font-style="normal" font-weight="normal" text-decoration="none" x="1017.5" y="509.5">修改个人信息</text></g></g><g transform="translate(-166,-110) scale(1,1)"><path fill="none" stroke="#000000" d="M 1056 552 L 1056 520" stroke-miterlimit="10"/></g><g transform="translate(-166,-110) scale(1,1)"><path fill="#000000" stroke="none" d="M 1060.2095177560159 530.1626748576241 L 1056 520 L 1051.7904822439841 530.1626748576241"/></g><g transform="translate(-166,-110) scale(1,1)"><path fill="none" stroke="#000000" d="M 1060.2095177560159 530.1626748576241 L 1056 520 L 1051.7904822439841 530.1626748576241 L 1060.2095177560159 530.1626748576241" stroke-miterlimit="10"/></g><g transform="translate(-166,-110) scale(1,1)"><rect fill="#ffffff" stroke="none" x="1016" y="424" width="73.18994140625" height="32"/></g><g transform="translate(-166,-110) scale(1,1)"><path fill="none" stroke="#000000" d="M 1016 424 L 1089.18994140625 424 L 1089.18994140625 456 L 1016 456 L 1016 424 Z Z" stroke-miterlimit="10"/></g><g transform="translate(-166,-110) scale(1,1)"><g><path fill="none" stroke="none"/><text fill="#000000" stroke="none" font-family="Arial" font-size="13px" font-style="normal" font-weight="normal" text-decoration="none" x="1026.594970703125" y="445.5">提交修改</text></g></g><g transform="translate(-166,-110) scale(1,1)"><path fill="none" stroke="#000000" d="M 1053 488 L 1053 456" stroke-miterlimit="10"/></g><g transform="translate(-166,-110) scale(1,1)"><path fill="#000000" stroke="none" d="M 1057.2095177560159 466.16267485762415 L 1053 456 L 1048.7904822439841 466.16267485762415"/></g><g transform="translate(-166,-110) scale(1,1)"><path fill="none" stroke="#000000" d="M 1057.2095177560159 466.16267485762415 L 1053 456 L 1048.7904822439841 466.16267485762415 L 1057.2095177560159 466.16267485762415" stroke-miterlimit="10"/></g><g transform="translate(-166,-110) scale(1,1)"><rect fill="#ffffff" stroke="none" x="1152" y="736" width="73.18994140625" height="32"/></g><g transform="translate(-166,-110) scale(1,1)"><path fill="none" stroke="#000000" d="M 1152 736 L 1225.18994140625 736 L 1225.18994140625 768 L 1152 768 L 1152 736 Z Z" stroke-miterlimit="10"/></g><g transform="translate(-166,-110) scale(1,1)"><g><path fill="none" stroke="none"/><text fill="#000000" stroke="none" font-family="Arial" font-size="13px" font-style="normal" font-weight="normal" text-decoration="none" x="1162.594970703125" y="757.5">修改密码</text></g></g><g transform="translate(-166,-110) scale(1,1)"><path fill="none" stroke="#000000" d="M 1056 703 L 1056 744 M 1056 744 A 8 8 0 0 0 1064 752 L 1152 752" stroke-miterlimit="10"/></g><g transform="translate(-166,-110) scale(1,1)"><path fill="#000000" stroke="none" d="M 1141.837325142376 756.209517756016 L 1152 752 L 1141.837325142376 747.790482243984"/></g><g transform="translate(-166,-110) scale(1,1)"><path fill="none" stroke="#000000" d="M 1141.837325142376 756.209517756016 L 1152 752 L 1141.837325142376 747.790482243984 L 1141.837325142376 756.209517756016" stroke-miterlimit="10"/></g><g transform="translate(-166,-110) scale(1,1)"><rect fill="#ffffff" stroke="none" x="1152" y="808" width="73.18994140625" height="32"/></g><g transform="translate(-166,-110) scale(1,1)"><path fill="none" stroke="#000000" d="M 1152 808 L 1225.18994140625 808 L 1225.18994140625 840 L 1152 840 L 1152 808 Z Z" stroke-miterlimit="10"/></g><g transform="translate(-166,-110) scale(1,1)"><g><path fill="none" stroke="none"/><text fill="#000000" stroke="none" font-family="Arial" font-size="13px" font-style="normal" font-weight="normal" text-decoration="none" x="1162.594970703125" y="829.5">提交修改</text></g></g><g transform="translate(-166,-110) scale(1,1)"><path fill="none" stroke="#000000" d="M 1188 768 L 1188 808" stroke-miterlimit="10"/></g><g transform="translate(-166,-110) scale(1,1)"><path fill="#000000" stroke="none" d="M 1183.7904822439841 797.8373251423759 L 1188 808 L 1192.2095177560159 797.8373251423759"/></g><g transform="translate(-166,-110) scale(1,1)"><path fill="none" stroke="#000000" d="M 1183.7904822439841 797.8373251423759 L 1188 808 L 1192.2095177560159 797.8373251423759 L 1183.7904822439841 797.8373251423759" stroke-miterlimit="10"/></g><g transform="translate(-166,-110) scale(1,1)"><path fill="#ffffff" stroke="none" d="M 704 944 L 768 920 L 832 944 L 768 968 L 704 944"/></g><g transform="translate(-166,-110) scale(1,1)"><path fill="none" stroke="#000000" d="M 704 944 L 768 920 L 832 944 L 768 968 L 704 944 L 704 944" stroke-miterlimit="10"/></g><g transform="translate(-166,-110) scale(1,1)"><g><path fill="none" stroke="none"/><text fill="#000000" stroke="none" font-family="Arial" font-size="13px" font-style="normal" font-weight="normal" text-decoration="none" x="742" y="949.5">客户管理</text></g></g><g transform="translate(-166,-110) scale(1,1)"><rect fill="#ffffff" stroke="none" x="504" y="928" width="73.18994140625" height="32"/></g><g transform="translate(-166,-110) scale(1,1)"><path fill="none" stroke="#000000" d="M 504 928 L 577.18994140625 928 L 577.18994140625 960 L 504 960 L 504 928 Z Z" stroke-miterlimit="10"/></g><g transform="translate(-166,-110) scale(1,1)"><g><path fill="none" stroke="none"/><text fill="#000000" stroke="none" font-family="Arial" font-size="13px" font-style="normal" font-weight="normal" text-decoration="none" x="514.594970703125" y="949.5">新增客户</text></g></g><g transform="translate(-166,-110) scale(1,1)"><path fill="none" stroke="#000000" d="M 704 944 L 577 944" stroke-miterlimit="10"/></g><g transform="translate(-166,-110) scale(1,1)"><path fill="#000000" stroke="none" d="M 587.1626748576241 939.790482243984 L 577 944 L 587.1626748576241 948.209517756016"/></g><g transform="translate(-166,-110) scale(1,1)"><path fill="none" stroke="#000000" d="M 587.1626748576241 939.790482243984 L 577 944 L 587.1626748576241 948.209517756016 L 587.1626748576241 939.790482243984" stroke-miterlimit="10"/></g><g transform="translate(-166,-110) scale(1,1)"><rect fill="#ffffff" stroke="none" x="936" y="928" width="73.18994140625" height="32"/></g><g transform="translate(-166,-110) scale(1,1)"><path fill="none" stroke="#000000" d="M 936 928 L 1009.18994140625 928 L 1009.18994140625 960 L 936 960 L 936 928 Z Z" stroke-miterlimit="10"/></g><g transform="translate(-166,-110) scale(1,1)"><g><path fill="none" stroke="none"/><text fill="#000000" stroke="none" font-family="Arial" font-size="13px" font-style="normal" font-weight="normal" text-decoration="none" x="946.594970703125" y="949.5">删除客户</text></g></g><g transform="translate(-166,-110) scale(1,1)"><path fill="none" stroke="#000000" d="M 832 944 L 936 944" stroke-miterlimit="10"/></g><g transform="translate(-166,-110) scale(1,1)"><path fill="#000000" stroke="none" d="M 925.8373251423759 948.209517756016 L 936 944 L 925.8373251423758 939.790482243984"/></g><g transform="translate(-166,-110) scale(1,1)"><path fill="none" stroke="#000000" d="M 925.8373251423759 948.209517756016 L 936 944 L 925.8373251423758 939.790482243984 L 925.8373251423759 948.209517756016" stroke-miterlimit="10"/></g><g transform="translate(-166,-110) scale(1,1)"><rect fill="#ffffff" stroke="none" x="720" y="1088" width="97" height="32"/></g><g transform="translate(-166,-110) scale(1,1)"><path fill="none" stroke="#000000" d="M 720 1088 L 817 1088 L 817 1120 L 720 1120 L 720 1088 Z Z" stroke-miterlimit="10"/></g><g transform="translate(-166,-110) scale(1,1)"><g><path fill="none" stroke="none"/><text fill="#000000" stroke="none" font-family="Arial" font-size="13px" font-style="normal" font-weight="normal" text-decoration="none" x="729.5" y="1109.5">修改客户信息</text></g></g><g transform="translate(-166,-110) scale(1,1)"><path fill="none" stroke="#000000" d="M 770 968 L 770 1088" stroke-miterlimit="10"/></g><g transform="translate(-166,-110) scale(1,1)"><path fill="#000000" stroke="none" d="M 765.790482243984 1077.837325142376 L 770 1088 L 774.209517756016 1077.837325142376"/></g><g transform="translate(-166,-110) scale(1,1)"><path fill="none" stroke="#000000" d="M 765.790482243984 1077.837325142376 L 770 1088 L 774.209517756016 1077.837325142376 L 765.790482243984 1077.837325142376" stroke-miterlimit="10"/></g><g transform="translate(-166,-110) scale(1,1)"><rect fill="#ffffff" stroke="none" x="504" y="1008" width="73.18994140625" height="32"/></g><g transform="translate(-166,-110) scale(1,1)"><path fill="none" stroke="#000000" d="M 504 1008 L 577.18994140625 1008 L 577.18994140625 1040 L 504 1040 L 504 1008 Z Z" stroke-miterlimit="10"/></g><g transform="translate(-166,-110) scale(1,1)"><g><path fill="none" stroke="none"/><text fill="#000000" stroke="none" font-family="Arial" font-size="13px" font-style="normal" font-weight="normal" text-decoration="none" x="514.594970703125" y="1029.5">填写信息</text></g></g><g transform="translate(-166,-110) scale(1,1)"><path fill="none" stroke="#000000" d="M 540 960 L 540 1008" stroke-miterlimit="10"/></g><g transform="translate(-166,-110) scale(1,1)"><path fill="#000000" stroke="none" d="M 535.790482243984 997.8373251423759 L 540 1008 L 544.209517756016 997.8373251423759"/></g><g transform="translate(-166,-110) scale(1,1)"><path fill="none" stroke="#000000" d="M 535.790482243984 997.8373251423759 L 540 1008 L 544.209517756016 997.8373251423759 L 535.790482243984 997.8373251423759" stroke-miterlimit="10"/></g><g transform="translate(-166,-110) scale(1,1)"><path fill="none" stroke="#000000" d="M 728 1088 L 728 1032 M 728 1032 A 8 8 0 0 0 720 1024 L 577 1024" stroke-miterlimit="10"/></g><g transform="translate(-166,-110) scale(1,1)"><path fill="#000000" stroke="none" d="M 587.1626748576241 1019.790482243984 L 577 1024 L 587.1626748576241 1028.2095177560159"/></g><g transform="translate(-166,-110) scale(1,1)"><path fill="none" stroke="#000000" d="M 587.1626748576241 1019.790482243984 L 577 1024 L 587.1626748576241 1028.2095177560159 L 587.1626748576241 1019.790482243984" stroke-miterlimit="10"/></g><g transform="translate(-166,-110) scale(1,1)"><rect fill="#ffffff" stroke="none" x="480" y="1192" width="126.61181640625" height="32"/></g><g transform="translate(-166,-110) scale(1,1)"><path fill="none" stroke="#000000" d="M 480 1192 L 606.61181640625 1192 L 606.61181640625 1224 L 480 1224 L 480 1192 Z Z" stroke-miterlimit="10"/></g><g transform="translate(-166,-110) scale(1,1)"><g><path fill="none" stroke="none"/><text fill="#000000" stroke="none" font-family="Arial" font-size="13px" font-style="normal" font-weight="normal" text-decoration="none" x="489.5" y="1214">修改成功/新增成功</text></g></g><g transform="translate(-166,-110) scale(1,1)"><path fill="#d8ffd8" stroke="none" d="M 712 671.5 L 768.58447265625 648 L 825.1689453125 671.5 L 768.58447265625 695 L 712 671.5"/></g><g transform="translate(-166,-110) scale(1,1)"><path fill="none" stroke="#000000" d="M 712 671.5 L 768.58447265625 648 L 825.1689453125 671.5 L 768.58447265625 695 L 712 671.5 L 712 671.5" stroke-miterlimit="10"/></g><g transform="translate(-166,-110) scale(1,1)"><g><path fill="none" stroke="none"/><text fill="#000000" stroke="none" font-family="Arial" font-size="13px" font-style="normal" font-weight="normal" text-decoration="none" x="742.58447265625" y="677">系统主页</text></g></g><g transform="translate(-166,-110) scale(1,1)"><path fill="none" stroke="#000000" d="M 672 672 L 712 672" stroke-miterlimit="10"/></g><g transform="translate(-166,-110) scale(1,1)"><path fill="#000000" stroke="none" d="M 701.8373251423759 676.209517756016 L 712 672 L 701.8373251423758 667.790482243984"/></g><g transform="translate(-166,-110) scale(1,1)"><path fill="none" stroke="#000000" d="M 701.8373251423759 676.209517756016 L 712 672 L 701.8373251423758 667.790482243984 L 701.8373251423759 676.209517756016" stroke-miterlimit="10"/></g><g transform="translate(-166,-110) scale(1,1)"><path fill="none" stroke="#000000" d="M 825 672 L 848 672" stroke-miterlimit="10"/></g><g transform="translate(-166,-110) scale(1,1)"><path fill="#000000" stroke="none" d="M 837.8373251423759 676.209517756016 L 848 672 L 837.8373251423758 667.790482243984"/></g><g transform="translate(-166,-110) scale(1,1)"><path fill="none" stroke="#000000" d="M 837.8373251423759 676.209517756016 L 848 672 L 837.8373251423758 667.790482243984 L 837.8373251423759 676.209517756016" stroke-miterlimit="10"/></g><g transform="translate(-166,-110) scale(1,1)"><path fill="none" stroke="#000000" d="M 768 695 L 768 744" stroke-miterlimit="10"/></g><g transform="translate(-166,-110) scale(1,1)"><path fill="#000000" stroke="none" d="M 763.790482243984 733.8373251423759 L 768 744 L 772.209517756016 733.8373251423759"/></g><g transform="translate(-166,-110) scale(1,1)"><path fill="none" stroke="#000000" d="M 763.790482243984 733.8373251423759 L 768 744 L 772.209517756016 733.8373251423759 L 763.790482243984 733.8373251423759" stroke-miterlimit="10"/></g><g transform="translate(-166,-110) scale(1,1)"><rect fill="#ffffff" stroke="none" x="1048" y="1328" width="136" height="32"/></g><g transform="translate(-166,-110) scale(1,1)"><path fill="none" stroke="#000000" d="M 1048 1328 L 1184 1328 L 1184 1360 L 1048 1360 L 1048 1328 Z Z" stroke-miterlimit="10"/></g><g transform="translate(-166,-110) scale(1,1)"><g><path fill="none" stroke="none"/><text fill="#000000" stroke="none" font-family="Arial" font-size="13px" font-style="normal" font-weight="normal" text-decoration="none" x="1057.5" y="1349.5">发送通知至客户邮箱</text></g></g><g transform="translate(-166,-110) scale(1,1)"><rect fill="#ffffff" stroke="none" x="720" y="824" width="97" height="32"/></g><g transform="translate(-166,-110) scale(1,1)"><path fill="none" stroke="#000000" d="M 720 824 L 817 824 L 817 856 L 720 856 L 720 824 Z Z" stroke-miterlimit="10"/></g><g transform="translate(-166,-110) scale(1,1)"><g><path fill="none" stroke="none"/><text fill="#000000" stroke="none" font-family="Arial" font-size="13px" font-style="normal" font-weight="normal" text-decoration="none" x="729.5" y="845.5">查询客户列表</text></g></g><g transform="translate(-166,-110) scale(1,1)"><path fill="none" stroke="#000000" d="M 768 776 L 768 824" stroke-miterlimit="10"/></g><g transform="translate(-166,-110) scale(1,1)"><path fill="#000000" stroke="none" d="M 763.790482243984 813.8373251423759 L 768 824 L 772.209517756016 813.8373251423759"/></g><g transform="translate(-166,-110) scale(1,1)"><path fill="none" stroke="#000000" d="M 763.790482243984 813.8373251423759 L 768 824 L 772.209517756016 813.8373251423759 L 763.790482243984 813.8373251423759" stroke-miterlimit="10"/></g><g transform="translate(-166,-110) scale(1,1)"><path fill="none" stroke="#000000" d="M 768 856 L 768 920" stroke-miterlimit="10"/></g><g transform="translate(-166,-110) scale(1,1)"><path fill="#000000" stroke="none" d="M 763.790482243984 909.8373251423759 L 768 920 L 772.209517756016 909.8373251423759"/></g><g transform="translate(-166,-110) scale(1,1)"><path fill="none" stroke="#000000" d="M 763.790482243984 909.8373251423759 L 768 920 L 772.209517756016 909.8373251423759 L 763.790482243984 909.8373251423759" stroke-miterlimit="10"/></g><g transform="translate(-166,-110) scale(1,1)"><path fill="#ffffff" stroke="none" d="M 464 1112 L 541.5 1088 L 619 1112 L 541.5 1136 L 464 1112"/></g><g transform="translate(-166,-110) scale(1,1)"><path fill="none" stroke="#000000" d="M 464 1112 L 541.5 1088 L 619 1112 L 541.5 1136 L 464 1112 L 464 1112" stroke-miterlimit="10"/></g><g transform="translate(-166,-110) scale(1,1)"><g><path fill="none" stroke="none"/><text fill="#000000" stroke="none" font-family="Arial" font-size="13px" font-style="normal" font-weight="normal" text-decoration="none" x="502.5" y="1117.5">信息是否合法</text></g></g><g transform="translate(-166,-110) scale(1,1)"><path fill="none" stroke="#000000" d="M 540 1040 L 540 1088" stroke-miterlimit="10"/></g><g transform="translate(-166,-110) scale(1,1)"><path fill="#000000" stroke="none" d="M 535.790482243984 1077.837325142376 L 540 1088 L 544.209517756016 1077.837325142376"/></g><g transform="translate(-166,-110) scale(1,1)"><path fill="none" stroke="#000000" d="M 535.790482243984 1077.837325142376 L 540 1088 L 544.209517756016 1077.837325142376 L 535.790482243984 1077.837325142376" stroke-miterlimit="10"/></g><g transform="translate(-166,-110) scale(1,1)"><path fill="none" stroke="#000000" d="M 542 1136 L 542 1192" stroke-miterlimit="10"/></g><g transform="translate(-166,-110) scale(1,1)"><path fill="#000000" stroke="none" d="M 537.790482243984 1181.837325142376 L 542 1192 L 546.209517756016 1181.837325142376"/></g><g transform="translate(-166,-110) scale(1,1)"><path fill="none" stroke="#000000" d="M 537.790482243984 1181.837325142376 L 542 1192 L 546.209517756016 1181.837325142376 L 537.790482243984 1181.837325142376" stroke-miterlimit="10"/></g><g transform="translate(-166,-110) scale(1,1)"><g><path fill="none" stroke="none"/><text fill="#000000" stroke="none" font-family="Arial" font-size="13px" font-style="normal" font-weight="normal" text-decoration="none" x="549.5" y="1168.5">是</text></g></g><g transform="translate(-166,-110) scale(1,1)"><path fill="none" stroke="#000000" d="M 464 1112 L 440 1112 L 440 1024 L 504 1024" stroke-miterlimit="10"/></g><g transform="translate(-166,-110) scale(1,1)"><path fill="#000000" stroke="none" d="M 493.83732514237585 1028.2095177560159 L 504 1024 L 493.83732514237585 1019.790482243984"/></g><g transform="translate(-166,-110) scale(1,1)"><path fill="none" stroke="#000000" d="M 493.83732514237585 1028.2095177560159 L 504 1024 L 493.83732514237585 1019.790482243984 L 493.83732514237585 1028.2095177560159" stroke-miterlimit="10"/></g><g transform="translate(-166,-110) scale(1,1)"><g><path fill="none" stroke="none"/><text fill="#000000" stroke="none" font-family="Arial" font-size="13px" font-style="normal" font-weight="normal" text-decoration="none" x="447.5" y="1102.5">否</text></g></g><g transform="translate(-166,-110) scale(1,1)"><path fill="#ffffff" stroke="none" d="M 872 1103.5 L 975.5 1080 L 1079 1103.5 L 975.5 1127 L 872 1103.5"/></g><g transform="translate(-166,-110) scale(1,1)"><path fill="none" stroke="#000000" d="M 872 1103.5 L 975.5 1080 L 1079 1103.5 L 975.5 1127 L 872 1103.5 L 872 1103.5" stroke-miterlimit="10"/></g><g transform="translate(-166,-110) scale(1,1)"><g><path fill="none" stroke="none"/><text fill="#000000" stroke="none" font-family="Arial" font-size="13px" font-style="normal" font-weight="normal" text-decoration="none" x="923.5" y="1109">二次确认是否删除</text></g></g><g transform="translate(-166,-110) scale(1,1)"><path fill="none" stroke="#000000" d="M 973 960 L 973 1080" stroke-miterlimit="10"/></g><g transform="translate(-166,-110) scale(1,1)"><path fill="#000000" stroke="none" d="M 968.790482243984 1069.837325142376 L 973 1080 L 977.209517756016 1069.837325142376"/></g><g transform="translate(-166,-110) scale(1,1)"><path fill="none" stroke="#000000" d="M 968.790482243984 1069.837325142376 L 973 1080 L 977.209517756016 1069.837325142376 L 968.790482243984 1069.837325142376" stroke-miterlimit="10"/></g><g transform="translate(-166,-110) scale(1,1)"><path fill="none" stroke="#000000" d="M 1079 1104 L 1096 1104 M 1096 1104 A 8 8 0 0 0 1104 1096 L 1104 848 M 1104 848 A 8 8 0 0 0 1096 840 L 817 840" stroke-miterlimit="10"/></g><g transform="translate(-166,-110) scale(1,1)"><path fill="#000000" stroke="none" d="M 827.1626748576241 835.790482243984 L 817 840 L 827.1626748576241 844.209517756016"/></g><g transform="translate(-166,-110) scale(1,1)"><path fill="none" stroke="#000000" d="M 827.1626748576241 835.790482243984 L 817 840 L 827.1626748576241 844.209517756016 L 827.1626748576241 835.790482243984" stroke-miterlimit="10"/></g><g transform="translate(-166,-110) scale(1,1)"><g><path fill="none" stroke="none"/><text fill="#000000" stroke="none" font-family="Arial" font-size="13px" font-style="normal" font-weight="normal" text-decoration="none" x="1082.5" y="976.5">否</text></g></g><g transform="translate(-166,-110) scale(1,1)"><path fill="#ffffff" stroke="none" d="M 856 1192 L 972.5 1168 L 1089 1192 L 972.5 1216 L 856 1192"/></g><g transform="translate(-166,-110) scale(1,1)"><path fill="none" stroke="#000000" d="M 856 1192 L 972.5 1168 L 1089 1192 L 972.5 1216 L 856 1192 L 856 1192" stroke-miterlimit="10"/></g><g transform="translate(-166,-110) scale(1,1)"><g><path fill="none" stroke="none"/><text fill="#000000" stroke="none" font-family="Arial" font-size="13px" font-style="normal" font-weight="normal" text-decoration="none" x="914" y="1197.5">客户账户是否已清零</text></g></g><g transform="translate(-166,-110) scale(1,1)"><path fill="none" stroke="#000000" d="M 974 1127 L 974 1168" stroke-miterlimit="10"/></g><g transform="translate(-166,-110) scale(1,1)"><path fill="#000000" stroke="none" d="M 969.790482243984 1157.837325142376 L 974 1168 L 978.209517756016 1157.837325142376"/></g><g transform="translate(-166,-110) scale(1,1)"><path fill="none" stroke="#000000" d="M 969.790482243984 1157.837325142376 L 974 1168 L 978.209517756016 1157.837325142376 L 969.790482243984 1157.837325142376" stroke-miterlimit="10"/></g><g transform="translate(-166,-110) scale(1,1)"><rect fill="#ffffff" stroke="none" x="1048" y="1264" width="143" height="32"/></g><g transform="translate(-166,-110) scale(1,1)"><path fill="none" stroke="#000000" d="M 1048 1264 L 1191 1264 L 1191 1296 L 1048 1296 L 1048 1264 Z Z" stroke-miterlimit="10"/></g><g transform="translate(-166,-110) scale(1,1)"><g><path fill="none" stroke="none"/><text fill="#000000" stroke="none" font-family="Arial" font-size="13px" font-style="normal" font-weight="normal" text-decoration="none" x="1061" y="1285.5">将客户状态记为删除</text></g></g><g transform="translate(-166,-110) scale(1,1)"><path fill="none" stroke="#000000" d="M 973 1216 L 973 1264 M 973 1264 A 8 8 0 0 0 981 1272 L 1048 1272" stroke-miterlimit="10"/></g><g transform="translate(-166,-110) scale(1,1)"><path fill="#000000" stroke="none" d="M 1037.837325142376 1276.2095177560159 L 1048 1272 L 1037.837325142376 1267.7904822439841"/></g><g transform="translate(-166,-110) scale(1,1)"><path fill="none" stroke="#000000" d="M 1037.837325142376 1276.2095177560159 L 1048 1272 L 1037.837325142376 1267.7904822439841 L 1037.837325142376 1276.2095177560159" stroke-miterlimit="10"/></g><g transform="translate(-166,-110) scale(1,1)"><g><path fill="none" stroke="none"/><text fill="#000000" stroke="none" font-family="Arial" font-size="13px" font-style="normal" font-weight="normal" text-decoration="none" x="975.5" y="1251.5">是</text></g></g><g transform="translate(-166,-110) scale(1,1)"><path fill="none" stroke="#000000" d="M 1120 1296 L 1120 1328" stroke-miterlimit="10"/></g><g transform="translate(-166,-110) scale(1,1)"><path fill="#000000" stroke="none" d="M 1115.7904822439841 1317.837325142376 L 1120 1328 L 1124.2095177560159 1317.837325142376"/></g><g transform="translate(-166,-110) scale(1,1)"><path fill="none" stroke="#000000" d="M 1115.7904822439841 1317.837325142376 L 1120 1328 L 1124.2095177560159 1317.837325142376 L 1115.7904822439841 1317.837325142376" stroke-miterlimit="10"/></g><g transform="translate(-166,-110) scale(1,1)"><rect fill="#ffffff" stroke="none" x="1112" y="1168" width="97" height="45"/></g><g transform="translate(-166,-110) scale(1,1)"><path fill="none" stroke="#000000" d="M 1112 1168 L 1209 1168 L 1209 1213 L 1112 1213 L 1112 1168 Z Z" stroke-miterlimit="10"/></g><g transform="translate(-166,-110) scale(1,1)"><g><path fill="none" stroke="none"/><text fill="#000000" stroke="none" font-family="Arial" font-size="13px" font-style="normal" font-weight="normal" text-decoration="none" x="1160.5" y="1184"></text><text fill="#000000" stroke="none" font-family="Arial" font-size="13px" font-style="normal" font-weight="normal" text-decoration="none" x="1121.5" y="1202.5">提示无法删除</text></g></g><g transform="translate(-166,-110) scale(1,1)"><path fill="none" stroke="#000000" d="M 1089 1192 L 1112 1192" stroke-miterlimit="10"/></g><g transform="translate(-166,-110) scale(1,1)"><path fill="#000000" stroke="none" d="M 1101.837325142376 1196.2095177560159 L 1112 1192 L 1101.837325142376 1187.7904822439841"/></g><g transform="translate(-166,-110) scale(1,1)"><path fill="none" stroke="#000000" d="M 1101.837325142376 1196.2095177560159 L 1112 1192 L 1101.837325142376 1187.7904822439841 L 1101.837325142376 1196.2095177560159" stroke-miterlimit="10"/></g><g transform="translate(-166,-110) scale(1,1)"><g><path fill="none" stroke="none"/><text fill="#000000" stroke="none" font-family="Arial" font-size="13px" font-style="normal" font-weight="normal" text-decoration="none" x="1093.5" y="1182.5">否</text></g></g><g transform="translate(-166,-110) scale(1,1)"><path fill="none" stroke="#000000" d="M 1144 1168 L 1144 848 M 1144 848 A 8 8 0 0 0 1136 840 L 817 840" stroke-miterlimit="10"/></g><g transform="translate(-166,-110) scale(1,1)"><path fill="#000000" stroke="none" d="M 827.1626748576241 835.790482243984 L 817 840 L 827.1626748576241 844.209517756016"/></g><g transform="translate(-166,-110) scale(1,1)"><path fill="none" stroke="#000000" d="M 827.1626748576241 835.790482243984 L 817 840 L 827.1626748576241 844.209517756016 L 827.1626748576241 835.790482243984" stroke-miterlimit="10"/></g><g transform="translate(-166,-110) scale(1,1)"><path fill="#ffffff" stroke="none" d="M 1312 823.5 L 1389.5 800 L 1467 823.5 L 1389.5 847 L 1312 823.5"/></g><g transform="translate(-166,-110) scale(1,1)"><path fill="none" stroke="#000000" d="M 1312 823.5 L 1389.5 800 L 1467 823.5 L 1389.5 847 L 1312 823.5 L 1312 823.5" stroke-miterlimit="10"/></g><g transform="translate(-166,-110) scale(1,1)"><g><path fill="none" stroke="none"/><text fill="#000000" stroke="none" font-family="Arial" font-size="13px" font-style="normal" font-weight="normal" text-decoration="none" x="1350.5" y="829">检查是否通过</text></g></g><g transform="translate(-166,-110) scale(1,1)"><path fill="none" stroke="#000000" d="M 1225 822 L 1312 822" stroke-miterlimit="10"/></g><g transform="translate(-166,-110) scale(1,1)"><path fill="#000000" stroke="none" d="M 1301.837325142376 826.209517756016 L 1312 822 L 1301.837325142376 817.790482243984"/></g><g transform="translate(-166,-110) scale(1,1)"><path fill="none" stroke="#000000" d="M 1301.837325142376 826.209517756016 L 1312 822 L 1301.837325142376 817.790482243984 L 1301.837325142376 826.209517756016" stroke-miterlimit="10"/></g><g transform="translate(-166,-110) scale(1,1)"><path fill="none" stroke="#000000" d="M 1467 823 L 1480 823 M 1480 823 A 8 8 0 0 0 1488 815 L 1488 679 M 1488 679 A 8 8 0 0 0 1480 671 L 1113 671" stroke-miterlimit="10"/></g><g transform="translate(-166,-110) scale(1,1)"><path fill="#000000" stroke="none" d="M 1123.162674857624 666.790482243984 L 1113 671 L 1123.162674857624 675.209517756016"/></g><g transform="translate(-166,-110) scale(1,1)"><path fill="none" stroke="#000000" d="M 1123.162674857624 666.790482243984 L 1113 671 L 1123.162674857624 675.209517756016 L 1123.162674857624 666.790482243984" stroke-miterlimit="10"/></g><g transform="translate(-166,-110) scale(1,1)"><g><path fill="none" stroke="none"/><text fill="#000000" stroke="none" font-family="Arial" font-size="13px" font-style="normal" font-weight="normal" text-decoration="none" x="1261.5" y="666.5">原密码正确，新密码合法，通过修改</text></g></g><g transform="translate(-166,-110) scale(1,1)"><path fill="none" stroke="#000000" d="M 1384 800 L 1384 768" stroke-miterlimit="10"/></g><g transform="translate(-166,-110) scale(1,1)"><path fill="#000000" stroke="none" d="M 1388.2095177560159 778.1626748576241 L 1384 768 L 1379.7904822439841 778.1626748576241"/></g><g transform="translate(-166,-110) scale(1,1)"><path fill="none" stroke="#000000" d="M 1388.2095177560159 778.1626748576241 L 1384 768 L 1379.7904822439841 778.1626748576241 L 1388.2095177560159 778.1626748576241" stroke-miterlimit="10"/></g><g transform="translate(-166,-110) scale(1,1)"><g><path fill="none" stroke="none"/><text fill="#000000" stroke="none" font-family="Arial" font-size="13px" font-style="normal" font-weight="normal" text-decoration="none" x="1383.5" y="794.5">不通过</text></g></g><g transform="translate(-166,-110) scale(1,1)"><path fill="#ffffff" stroke="none" d="M 1192 438.5 L 1269.5 424 L 1347 438.5 L 1269.5 453 L 1192 438.5"/></g><g transform="translate(-166,-110) scale(1,1)"><path fill="none" stroke="#000000" d="M 1192 438.5 L 1269.5 424 L 1347 438.5 L 1269.5 453 L 1192 438.5 L 1192 438.5" stroke-miterlimit="10"/></g><g transform="translate(-166,-110) scale(1,1)"><g><path fill="none" stroke="none"/><text fill="#000000" stroke="none" font-family="Arial" font-size="13px" font-style="normal" font-weight="normal" text-decoration="none" x="1230.5" y="444">检查是否通过</text></g></g><g transform="translate(-166,-110) scale(1,1)"><path fill="none" stroke="#000000" d="M 1089 438 L 1192 438" stroke-miterlimit="10"/></g><g transform="translate(-166,-110) scale(1,1)"><path fill="#000000" stroke="none" d="M 1181.837325142376 442.209517756016 L 1192 438 L 1181.837325142376 433.790482243984"/></g><g transform="translate(-166,-110) scale(1,1)"><path fill="none" stroke="#000000" d="M 1181.837325142376 442.209517756016 L 1192 438 L 1181.837325142376 433.790482243984 L 1181.837325142376 442.209517756016" stroke-miterlimit="10"/></g><g transform="translate(-166,-110) scale(1,1)"><path fill="none" stroke="#000000" d="M 1272 453 L 1272 552 M 1272 552 A 8 8 0 0 1 1264 560 L 1105 560" stroke-miterlimit="10"/></g><g transform="translate(-166,-110) scale(1,1)"><path fill="#000000" stroke="none" d="M 1115.162674857624 555.790482243984 L 1105 560 L 1115.162674857624 564.209517756016"/></g><g transform="translate(-166,-110) scale(1,1)"><path fill="none" stroke="#000000" d="M 1115.162674857624 555.790482243984 L 1105 560 L 1115.162674857624 564.209517756016 L 1115.162674857624 555.790482243984" stroke-miterlimit="10"/></g><g transform="translate(-166,-110) scale(1,1)"><g><path fill="none" stroke="none"/><text fill="#000000" stroke="none" font-family="Arial" font-size="13px" font-style="normal" font-weight="normal" text-decoration="none" x="1135.5" y="554.5">信息合法，通过修改</text></g></g><g transform="translate(-166,-110) scale(1,1)"><rect fill="#ffffff" stroke="none" x="1328" y="512" width="73.18994140625" height="32"/></g><g transform="translate(-166,-110) scale(1,1)"><path fill="none" stroke="#000000" d="M 1328 512 L 1401.18994140625 512 L 1401.18994140625 544 L 1328 544 L 1328 512 Z Z" stroke-miterlimit="10"/></g><g transform="translate(-166,-110) scale(1,1)"><g><path fill="none" stroke="none"/><text fill="#000000" stroke="none" font-family="Arial" font-size="13px" font-style="normal" font-weight="normal" text-decoration="none" x="1338.594970703125" y="533.5">提示失败</text></g></g><g transform="translate(-166,-110) scale(1,1)"><path fill="none" stroke="#000000" d="M 1347 438 L 1360 438 M 1360 438 A 8 8 0 0 1 1368 446 L 1368 512" stroke-miterlimit="10"/></g><g transform="translate(-166,-110) scale(1,1)"><path fill="#000000" stroke="none" d="M 1363.7904822439841 501.83732514237585 L 1368 512 L 1372.2095177560159 501.83732514237585"/></g><g transform="translate(-166,-110) scale(1,1)"><path fill="none" stroke="#000000" d="M 1363.7904822439841 501.83732514237585 L 1368 512 L 1372.2095177560159 501.83732514237585 L 1363.7904822439841 501.83732514237585" stroke-miterlimit="10"/></g><g transform="translate(-166,-110) scale(1,1)"><g><path fill="none" stroke="none"/><text fill="#000000" stroke="none" font-family="Arial" font-size="13px" font-style="normal" font-weight="normal" text-decoration="none" x="1367.5" y="482.5">不通过</text></g></g><g transform="translate(-166,-110) scale(1,1)"><path fill="none" stroke="#000000" d="M 1364 544 L 1364 560 M 1364 560 A 8 8 0 0 1 1356 568 L 1105 568" stroke-miterlimit="10"/></g><g transform="translate(-166,-110) scale(1,1)"><path fill="#000000" stroke="none" d="M 1115.162674857624 563.790482243984 L 1105 568 L 1115.162674857624 572.209517756016"/></g><g transform="translate(-166,-110) scale(1,1)"><path fill="none" stroke="#000000" d="M 1115.162674857624 563.790482243984 L 1105 568 L 1115.162674857624 572.209517756016 L 1115.162674857624 563.790482243984" stroke-miterlimit="10"/></g><g transform="translate(-166,-110) scale(1,1)"><rect fill="#ffffff" stroke="none" x="1352" y="736" width="73.18994140625" height="32"/></g><g transform="translate(-166,-110) scale(1,1)"><path fill="none" stroke="#000000" d="M 1352 736 L 1425.18994140625 736 L 1425.18994140625 768 L 1352 768 L 1352 736 Z Z" stroke-miterlimit="10"/></g><g transform="translate(-166,-110) scale(1,1)"><g><path fill="none" stroke="none"/><text fill="#000000" stroke="none" font-family="Arial" font-size="13px" font-style="normal" font-weight="normal" text-decoration="none" x="1362.594970703125" y="757.5">提示失败</text></g></g><g transform="translate(-166,-110) scale(1,1)"><path fill="none" stroke="#000000" d="M 1352 751 L 1225 751" stroke-miterlimit="10"/></g><g transform="translate(-166,-110) scale(1,1)"><path fill="#000000" stroke="none" d="M 1235.162674857624 746.790482243984 L 1225 751 L 1235.162674857624 755.209517756016"/></g><g transform="translate(-166,-110) scale(1,1)"><path fill="none" stroke="#000000" d="M 1235.162674857624 746.790482243984 L 1225 751 L 1235.162674857624 755.209517756016 L 1235.162674857624 746.790482243984" stroke-miterlimit="10"/></g><g transform="translate(-166,-110) scale(1,1)"><path fill="#ffffff" stroke="none" d="M 570 824 L 675.2216796875 824 Q 685.2216796875 824 685.2216796875 834 L 685.2216796875 846 Q 685.2216796875 856 675.2216796875 856 L 570 856 Q 560 856 560 846 L 560 834 Q 560 824 570 824 Z"/></g><g transform="translate(-166,-110) scale(1,1)"><path fill="none" stroke="#000000" d="M 570 824 L 675.2216796875 824 Q 685.2216796875 824 685.2216796875 834 L 685.2216796875 846 Q 685.2216796875 856 675.2216796875 856 L 570 856 Q 560 856 560 846 L 560 834 Q 560 824 570 824 Z" stroke-miterlimit="10"/></g><g transform="translate(-166,-110) scale(1,1)"><g><path fill="none" stroke="none"/><text fill="#000000" stroke="none" font-family="Arial" font-size="13px" font-style="normal" font-weight="normal" text-decoration="none" x="577.11083984375" y="845.5">搜索、筛选客户</text></g></g><g transform="translate(-166,-110) scale(1,1)"><path fill="none" stroke="#000000" d="M 720 840 L 685 840" stroke-miterlimit="10"/></g><g transform="translate(-166,-110) scale(1,1)"><path fill="#000000" stroke="none" d="M 695.1626748576241 835.790482243984 L 685 840 L 695.1626748576241 844.209517756016"/></g><g transform="translate(-166,-110) scale(1,1)"><path fill="none" stroke="#000000" d="M 695.1626748576241 835.790482243984 L 685 840 L 695.1626748576241 844.209517756016 L 695.1626748576241 835.790482243984" stroke-miterlimit="10"/></g><g transform="translate(-166,-110) scale(1,1)"><path fill="none" stroke="#000000" d="M 644 856 L 644 888 M 644 888 A 8 8 0 0 0 652 896 L 760 896 M 760 896 A 8 8 0 0 1 768 904 L 768 920" stroke-miterlimit="10"/></g><g transform="translate(-166,-110) scale(1,1)"><path fill="#000000" stroke="none" d="M 763.790482243984 909.8373251423759 L 768 920 L 772.209517756016 909.8373251423759"/></g><g transform="translate(-166,-110) scale(1,1)"><path fill="none" stroke="#000000" d="M 763.790482243984 909.8373251423759 L 768 920 L 772.209517756016 909.8373251423759 L 763.790482243984 909.8373251423759" stroke-miterlimit="10"/></g><g transform="translate(-166,-110) scale(1,1)"><path fill="#d8ffd8" stroke="none" d="M 704 1238.5 L 768.5 1224 L 833 1238.5 L 768.5 1253 L 704 1238.5"/></g><g transform="translate(-166,-110) scale(1,1)"><path fill="none" stroke="#000000" d="M 704 1238.5 L 768.5 1224 L 833 1238.5 L 768.5 1253 L 704 1238.5 L 704 1238.5" stroke-miterlimit="10"/></g><g transform="translate(-166,-110) scale(1,1)"><g><path fill="none" stroke="none"/><text fill="#000000" stroke="none" font-family="Arial" font-size="13px" font-style="normal" font-weight="normal" text-decoration="none" x="736" y="1244">银行卡管理</text></g></g><g transform="translate(-166,-110) scale(1,1)"><rect fill="#ffffff" stroke="none" x="584" y="1336" width="84" height="32"/></g><g transform="translate(-166,-110) scale(1,1)"><path fill="none" stroke="#000000" d="M 584 1336 L 668 1336 L 668 1368 L 584 1368 L 584 1336 Z Z" stroke-miterlimit="10"/></g><g transform="translate(-166,-110) scale(1,1)"><g><path fill="none" stroke="none"/><text fill="#000000" stroke="none" font-family="Arial" font-size="13px" font-style="normal" font-weight="normal" text-decoration="none" x="593.5" y="1357.5">添加银行卡</text></g></g><g transform="translate(-166,-110) scale(1,1)"><rect fill="#ffffff" stroke="none" x="680" y="1336" width="110" height="32"/></g><g transform="translate(-166,-110) scale(1,1)"><path fill="none" stroke="#000000" d="M 680 1336 L 790 1336 L 790 1368 L 680 1368 L 680 1336 Z Z" stroke-miterlimit="10"/></g><g transform="translate(-166,-110) scale(1,1)"><g><path fill="none" stroke="none"/><text fill="#000000" stroke="none" font-family="Arial" font-size="13px" font-style="normal" font-weight="normal" text-decoration="none" x="689.5" y="1357.5">修改银行卡信息</text></g></g><g transform="translate(-166,-110) scale(1,1)"><rect fill="#ffffff" stroke="none" x="800" y="1336" width="88" height="32"/></g><g transform="translate(-166,-110) scale(1,1)"><path fill="none" stroke="#000000" d="M 800 1336 L 888 1336 L 888 1368 L 800 1368 L 800 1336 Z Z" stroke-miterlimit="10"/></g><g transform="translate(-166,-110) scale(1,1)"><g><path fill="none" stroke="none"/><text fill="#000000" stroke="none" font-family="Arial" font-size="13px" font-style="normal" font-weight="normal" text-decoration="none" x="811.5" y="1357.5">删除银行卡</text></g></g><g transform="translate(-166,-110) scale(1,1)"><path fill="none" stroke="#000000" d="M 767 1120 L 767 1224" stroke-miterlimit="10"/></g><g transform="translate(-166,-110) scale(1,1)"><path fill="#000000" stroke="none" d="M 762.790482243984 1213.837325142376 L 767 1224 L 771.209517756016 1213.837325142376"/></g><g transform="translate(-166,-110) scale(1,1)"><path fill="none" stroke="#000000" d="M 762.790482243984 1213.837325142376 L 767 1224 L 771.209517756016 1213.837325142376 L 762.790482243984 1213.837325142376" stroke-miterlimit="10"/></g><g transform="translate(-166,-110) scale(1,1)"><path fill="none" stroke="#000000" d="M 760 1253 L 760 1336" stroke-miterlimit="10"/></g><g transform="translate(-166,-110) scale(1,1)"><path fill="#000000" stroke="none" d="M 755.790482243984 1325.837325142376 L 760 1336 L 764.209517756016 1325.837325142376"/></g><g transform="translate(-166,-110) scale(1,1)"><path fill="none" stroke="#000000" d="M 755.790482243984 1325.837325142376 L 760 1336 L 764.209517756016 1325.837325142376 L 755.790482243984 1325.837325142376" stroke-miterlimit="10"/></g><g transform="translate(-166,-110) scale(1,1)"><path fill="none" stroke="#000000" d="M 760 1253 L 760 1288 M 760 1288 A 8 8 0 0 1 752 1296 L 632 1296 M 632 1296 A 8 8 0 0 0 624 1304 L 624 1336" stroke-miterlimit="10"/></g><g transform="translate(-166,-110) scale(1,1)"><path fill="#000000" stroke="none" d="M 619.790482243984 1325.837325142376 L 624 1336 L 628.209517756016 1325.837325142376"/></g><g transform="translate(-166,-110) scale(1,1)"><path fill="none" stroke="#000000" d="M 619.790482243984 1325.837325142376 L 624 1336 L 628.209517756016 1325.837325142376 L 619.790482243984 1325.837325142376" stroke-miterlimit="10"/></g><g transform="translate(-166,-110) scale(1,1)"><path fill="none" stroke="#000000" d="M 760 1253 L 760 1288 M 760 1288 A 8 8 0 0 0 768 1296 L 856 1296 M 856 1296 A 8 8 0 0 1 864 1304 L 864 1336" stroke-miterlimit="10"/></g><g transform="translate(-166,-110) scale(1,1)"><path fill="#000000" stroke="none" d="M 859.790482243984 1325.837325142376 L 864 1336 L 868.209517756016 1325.837325142376"/></g><g transform="translate(-166,-110) scale(1,1)"><path fill="none" stroke="#000000" d="M 859.790482243984 1325.837325142376 L 864 1336 L 868.209517756016 1325.837325142376 L 859.790482243984 1325.837325142376" stroke-miterlimit="10"/></g><g transform="translate(-166,-110) scale(1,1)"><rect fill="#ffffff" stroke="none" x="624" y="1424" width="110" height="32"/></g><g transform="translate(-166,-110) scale(1,1)"><path fill="none" stroke="#000000" d="M 624 1424 L 734 1424 L 734 1456 L 624 1456 L 624 1424 Z Z" stroke-miterlimit="10"/></g><g transform="translate(-166,-110) scale(1,1)"><g><path fill="none" stroke="none"/><text fill="#000000" stroke="none" font-family="Arial" font-size="13px" font-style="normal" font-weight="normal" text-decoration="none" x="633.5" y="1445.5">填写银行卡信息</text></g></g><g transform="translate(-166,-110) scale(1,1)"><path fill="none" stroke="#000000" d="M 637 1368 L 637 1424" stroke-miterlimit="10"/></g><g transform="translate(-166,-110) scale(1,1)"><path fill="#000000" stroke="none" d="M 632.790482243984 1413.837325142376 L 637 1424 L 641.209517756016 1413.837325142376"/></g><g transform="translate(-166,-110) scale(1,1)"><path fill="none" stroke="#000000" d="M 632.790482243984 1413.837325142376 L 637 1424 L 641.209517756016 1413.837325142376 L 632.790482243984 1413.837325142376" stroke-miterlimit="10"/></g><g transform="translate(-166,-110) scale(1,1)"><path fill="none" stroke="#000000" d="M 726 1368 L 726 1424" stroke-miterlimit="10"/></g><g transform="translate(-166,-110) scale(1,1)"><path fill="#000000" stroke="none" d="M 721.790482243984 1413.837325142376 L 726 1424 L 730.209517756016 1413.837325142376"/></g><g transform="translate(-166,-110) scale(1,1)"><path fill="none" stroke="#000000" d="M 721.790482243984 1413.837325142376 L 726 1424 L 730.209517756016 1413.837325142376 L 721.790482243984 1413.837325142376" stroke-miterlimit="10"/></g><g transform="translate(-166,-110) scale(1,1)"><path fill="#ffffff" stroke="none" d="M 608 1494.5 L 685.5 1480 L 763 1494.5 L 685.5 1509 L 608 1494.5"/></g><g transform="translate(-166,-110) scale(1,1)"><path fill="none" stroke="#000000" d="M 608 1494.5 L 685.5 1480 L 763 1494.5 L 685.5 1509 L 608 1494.5 L 608 1494.5" stroke-miterlimit="10"/></g><g transform="translate(-166,-110) scale(1,1)"><g><path fill="none" stroke="none"/><text fill="#000000" stroke="none" font-family="Arial" font-size="13px" font-style="normal" font-weight="normal" text-decoration="none" x="646.5" y="1500">信息是否合法</text></g></g><g transform="translate(-166,-110) scale(1,1)"><path fill="none" stroke="#000000" d="M 681 1456 L 681 1480" stroke-miterlimit="10"/></g><g transform="translate(-166,-110) scale(1,1)"><path fill="#000000" stroke="none" d="M 676.790482243984 1469.837325142376 L 681 1480 L 685.209517756016 1469.837325142376"/></g><g transform="translate(-166,-110) scale(1,1)"><path fill="none" stroke="#000000" d="M 676.790482243984 1469.837325142376 L 681 1480 L 685.209517756016 1469.837325142376 L 676.790482243984 1469.837325142376" stroke-miterlimit="10"/></g><g transform="translate(-166,-110) scale(1,1)"><rect fill="#ffffff" stroke="none" x="624" y="1544" width="126.61181640625" height="32"/></g><g transform="translate(-166,-110) scale(1,1)"><path fill="none" stroke="#000000" d="M 624 1544 L 750.61181640625 1544 L 750.61181640625 1576 L 624 1576 L 624 1544 Z Z" stroke-miterlimit="10"/></g><g transform="translate(-166,-110) scale(1,1)"><g><path fill="none" stroke="none"/><text fill="#000000" stroke="none" font-family="Arial" font-size="13px" font-style="normal" font-weight="normal" text-decoration="none" x="633.5" y="1566">添加成功/修改成功</text></g></g><g transform="translate(-166,-110) scale(1,1)"><path fill="none" stroke="#000000" d="M 685 1509 L 685 1544" stroke-miterlimit="10"/></g><g transform="translate(-166,-110) scale(1,1)"><path fill="#000000" stroke="none" d="M 680.790482243984 1533.837325142376 L 685 1544 L 689.209517756016 1533.837325142376"/></g><g transform="translate(-166,-110) scale(1,1)"><path fill="none" stroke="#000000" d="M 680.790482243984 1533.837325142376 L 685 1544 L 689.209517756016 1533.837325142376 L 680.790482243984 1533.837325142376" stroke-miterlimit="10"/></g><g transform="translate(-166,-110) scale(1,1)"><g><path fill="none" stroke="none"/><text fill="#000000" stroke="none" font-family="Arial" font-size="13px" font-style="normal" font-weight="normal" text-decoration="none" x="692.5" y="1530.5">是</text></g></g><g transform="translate(-166,-110) scale(1,1)"><path fill="none" stroke="#000000" d="M 624 1544 L 528 1544 L 528 1440 L 624 1440" stroke-miterlimit="10"/></g><g transform="translate(-166,-110) scale(1,1)"><path fill="#000000" stroke="none" d="M 613.8373251423759 1444.2095177560159 L 624 1440 L 613.8373251423758 1435.7904822439841"/></g><g transform="translate(-166,-110) scale(1,1)"><path fill="none" stroke="#000000" d="M 613.8373251423759 1444.2095177560159 L 624 1440 L 613.8373251423758 1435.7904822439841 L 613.8373251423759 1444.2095177560159" stroke-miterlimit="10"/></g><g transform="translate(-166,-110) scale(1,1)"><g><path fill="none" stroke="none"/><text fill="#000000" stroke="none" font-family="Arial" font-size="13px" font-style="normal" font-weight="normal" text-decoration="none" x="506.5" y="1496.5">否</text></g></g><g transform="translate(-166,-110) scale(1,1)"><path fill="#ffffff" stroke="none" d="M 768 1435.5 L 845.5 1408 L 923 1435.5 L 845.5 1463 L 768 1435.5"/></g><g transform="translate(-166,-110) scale(1,1)"><path fill="none" stroke="#000000" d="M 768 1435.5 L 845.5 1408 L 923 1435.5 L 845.5 1463 L 768 1435.5 L 768 1435.5" stroke-miterlimit="10"/></g><g transform="translate(-166,-110) scale(1,1)"><g><path fill="none" stroke="none"/><text fill="#000000" stroke="none" font-family="Arial" font-size="13px" font-style="normal" font-weight="normal" text-decoration="none" x="806.5" y="1441">确认是否删除</text></g></g><g transform="translate(-166,-110) scale(1,1)"><path fill="none" stroke="#000000" d="M 846 1368 L 846 1408" stroke-miterlimit="10"/></g><g transform="translate(-166,-110) scale(1,1)"><path fill="#000000" stroke="none" d="M 841.790482243984 1397.837325142376 L 846 1408 L 850.209517756016 1397.837325142376"/></g><g transform="translate(-166,-110) scale(1,1)"><path fill="none" stroke="#000000" d="M 841.790482243984 1397.837325142376 L 846 1408 L 850.209517756016 1397.837325142376 L 841.790482243984 1397.837325142376" stroke-miterlimit="10"/></g><g transform="translate(-166,-110) scale(1,1)"><path fill="none" stroke="#000000" d="M 923 1440 L 928 1440 M 928 1440 A 8 8 0 0 0 936 1432 L 936 1248 M 936 1248 A 8 8 0 0 0 928 1240 L 833 1240" stroke-miterlimit="10"/></g><g transform="translate(-166,-110) scale(1,1)"><path fill="#000000" stroke="none" d="M 843.1626748576241 1235.7904822439841 L 833 1240 L 843.1626748576241 1244.2095177560159"/></g><g transform="translate(-166,-110) scale(1,1)"><path fill="none" stroke="#000000" d="M 843.1626748576241 1235.7904822439841 L 833 1240 L 843.1626748576241 1244.2095177560159 L 843.1626748576241 1235.7904822439841" stroke-miterlimit="10"/></g><g transform="translate(-166,-110) scale(1,1)"><g><path fill="none" stroke="none"/><text fill="#000000" stroke="none" font-family="Arial" font-size="13px" font-style="normal" font-weight="normal" text-decoration="none" x="914.5" y="1344.5">否</text></g></g><g transform="translate(-166,-110) scale(1,1)"><rect fill="#ffffff" stroke="none" x="800" y="1504" width="95" height="32"/></g><g transform="translate(-166,-110) scale(1,1)"><path fill="none" stroke="#000000" d="M 800 1504 L 895 1504 L 895 1536 L 800 1536 L 800 1504 Z Z" stroke-miterlimit="10"/></g><g transform="translate(-166,-110) scale(1,1)"><g><path fill="none" stroke="none"/><text fill="#000000" stroke="none" font-family="Arial" font-size="13px" font-style="normal" font-weight="normal" text-decoration="none" x="821.5" y="1526">成功删除</text></g></g><g transform="translate(-166,-110) scale(1,1)"><path fill="none" stroke="#000000" d="M 846 1463 L 846 1504" stroke-miterlimit="10"/></g><g transform="translate(-166,-110) scale(1,1)"><path fill="#000000" stroke="none" d="M 841.790482243984 1493.837325142376 L 846 1504 L 850.209517756016 1493.837325142376"/></g><g transform="translate(-166,-110) scale(1,1)"><path fill="none" stroke="#000000" d="M 841.790482243984 1493.837325142376 L 846 1504 L 850.209517756016 1493.837325142376 L 841.790482243984 1493.837325142376" stroke-miterlimit="10"/></g><g transform="translate(-166,-110) scale(1,1)"><path fill="none" stroke="#000000" d="M 895 1504 L 928 1504 M 928 1504 A 8 8 0 0 0 936 1496 L 936 1248 M 936 1248 A 8 8 0 0 0 928 1240 L 833 1240" stroke-miterlimit="10"/></g><g transform="translate(-166,-110) scale(1,1)"><path fill="#000000" stroke="none" d="M 843.1626748576241 1235.7904822439841 L 833 1240 L 843.1626748576241 1244.2095177560159"/></g><g transform="translate(-166,-110) scale(1,1)"><path fill="none" stroke="#000000" d="M 843.1626748576241 1235.7904822439841 L 833 1240 L 843.1626748576241 1244.2095177560159 L 843.1626748576241 1235.7904822439841" stroke-miterlimit="10"/></g><g transform="translate(-166,-110) scale(1,1)"><path fill="none" stroke="#000000" d="M 768 648 L 768 616" stroke-miterlimit="10"/></g><g transform="translate(-166,-110) scale(1,1)"><path fill="#000000" stroke="none" d="M 772.209517756016 626.1626748576241 L 768 616 L 763.790482243984 626.1626748576241"/></g><g transform="translate(-166,-110) scale(1,1)"><path fill="none" stroke="#000000" d="M 772.209517756016 626.1626748576241 L 768 616 L 763.790482243984 626.1626748576241 L 772.209517756016 626.1626748576241" stroke-miterlimit="10"/></g><g transform="translate(-166,-110) scale(1,1)"><rect fill="#ffffff" stroke="none" x="720" y="512" width="97" height="32"/></g><g transform="translate(-166,-110) scale(1,1)"><path fill="none" stroke="#000000" d="M 720 512 L 817 512 L 817 544 L 720 544 L 720 512 Z Z" stroke-miterlimit="10"/></g><g transform="translate(-166,-110) scale(1,1)"><g><path fill="none" stroke="none"/><text fill="#000000" stroke="none" font-family="Arial" font-size="13px" font-style="normal" font-weight="normal" text-decoration="none" x="729.5" y="533.5">查询基金列表</text></g></g><g transform="translate(-166,-110) scale(1,1)"><path fill="none" stroke="#000000" d="M 768 584 L 768 544" stroke-miterlimit="10"/></g><g transform="translate(-166,-110) scale(1,1)"><path fill="#000000" stroke="none" d="M 772.209517756016 554.1626748576241 L 768 544 L 763.790482243984 554.1626748576241"/></g><g transform="translate(-166,-110) scale(1,1)"><path fill="none" stroke="#000000" d="M 772.209517756016 554.1626748576241 L 768 544 L 763.790482243984 554.1626748576241 L 772.209517756016 554.1626748576241" stroke-miterlimit="10"/></g><g transform="translate(-166,-110) scale(1,1)"><path fill="#ffffff" stroke="none" d="M 546 512 L 661 512 Q 671 512 671 522 L 671 534 Q 671 544 661 544 L 546 544 Q 536 544 536 534 L 536 522 Q 536 512 546 512 Z"/></g><g transform="translate(-166,-110) scale(1,1)"><path fill="none" stroke="#000000" d="M 546 512 L 661 512 Q 671 512 671 522 L 671 534 Q 671 544 661 544 L 546 544 Q 536 544 536 534 L 536 522 Q 536 512 546 512 Z" stroke-miterlimit="10"/></g><g transform="translate(-166,-110) scale(1,1)"><g><path fill="none" stroke="none"/><text fill="#000000" stroke="none" font-family="Arial" font-size="13px" font-style="normal" font-weight="normal" text-decoration="none" x="558" y="533.5">搜索、筛选基金</text></g></g><g transform="translate(-166,-110) scale(1,1)"><path fill="#d8ffd8" stroke="none" d="M 712 424 L 772 392 L 832 424 L 772 456 L 712 424"/></g><g transform="translate(-166,-110) scale(1,1)"><path fill="none" stroke="#000000" d="M 712 424 L 772 392 L 832 424 L 772 456 L 712 424 L 712 424" stroke-miterlimit="10"/></g><g transform="translate(-166,-110) scale(1,1)"><g><path fill="none" stroke="none"/><text fill="#000000" stroke="none" font-family="Arial" font-size="13px" font-style="normal" font-weight="normal" text-decoration="none" x="746" y="429.5">基金管理</text></g></g><g transform="translate(-166,-110) scale(1,1)"><path fill="none" stroke="#000000" d="M 768 512 L 768 456" stroke-miterlimit="10"/></g><g transform="translate(-166,-110) scale(1,1)"><path fill="#000000" stroke="none" d="M 772.209517756016 466.16267485762415 L 768 456 L 763.790482243984 466.16267485762415"/></g><g transform="translate(-166,-110) scale(1,1)"><path fill="none" stroke="#000000" d="M 772.209517756016 466.16267485762415 L 768 456 L 763.790482243984 466.16267485762415 L 772.209517756016 466.16267485762415" stroke-miterlimit="10"/></g><g transform="translate(-166,-110) scale(1,1)"><path fill="none" stroke="#000000" d="M 600 512 L 600 432 M 600 432 A 8 8 0 0 1 608 424 L 712 424" stroke-miterlimit="10"/></g><g transform="translate(-166,-110) scale(1,1)"><path fill="#000000" stroke="none" d="M 701.8373251423759 428.209517756016 L 712 424 L 701.8373251423758 419.790482243984"/></g><g transform="translate(-166,-110) scale(1,1)"><path fill="none" stroke="#000000" d="M 701.8373251423759 428.209517756016 L 712 424 L 701.8373251423758 419.790482243984 L 701.8373251423759 428.209517756016" stroke-miterlimit="10"/></g><g transform="translate(-166,-110) scale(1,1)"><path fill="none" stroke="#000000" d="M 720 528 L 671 528" stroke-miterlimit="10"/></g><g transform="translate(-166,-110) scale(1,1)"><path fill="#000000" stroke="none" d="M 681.1626748576241 523.790482243984 L 671 528 L 681.1626748576241 532.209517756016"/></g><g transform="translate(-166,-110) scale(1,1)"><path fill="none" stroke="#000000" d="M 681.1626748576241 523.790482243984 L 671 528 L 681.1626748576241 532.209517756016 L 681.1626748576241 523.790482243984" stroke-miterlimit="10"/></g><g transform="translate(-166,-110) scale(1,1)"><rect fill="#ffffff" stroke="none" x="632" y="304" width="73.18994140625" height="32"/></g><g transform="translate(-166,-110) scale(1,1)"><path fill="none" stroke="#000000" d="M 632 304 L 705.18994140625 304 L 705.18994140625 336 L 632 336 L 632 304 Z Z" stroke-miterlimit="10"/></g><g transform="translate(-166,-110) scale(1,1)"><g><path fill="none" stroke="none"/><text fill="#000000" stroke="none" font-family="Arial" font-size="13px" font-style="normal" font-weight="normal" text-decoration="none" x="642.594970703125" y="325.5">添加基金</text></g></g><g transform="translate(-166,-110) scale(1,1)"><rect fill="#ffffff" stroke="none" x="728" y="304" width="73.18994140625" height="32"/></g><g transform="translate(-166,-110) scale(1,1)"><path fill="none" stroke="#000000" d="M 728 304 L 801.18994140625 304 L 801.18994140625 336 L 728 336 L 728 304 Z Z" stroke-miterlimit="10"/></g><g transform="translate(-166,-110) scale(1,1)"><g><path fill="none" stroke="none"/><text fill="#000000" stroke="none" font-family="Arial" font-size="13px" font-style="normal" font-weight="normal" text-decoration="none" x="738.594970703125" y="325.5">修改基金</text></g></g><g transform="translate(-166,-110) scale(1,1)"><rect fill="#ffffff" stroke="none" x="832" y="304" width="73.18994140625" height="32"/></g><g transform="translate(-166,-110) scale(1,1)"><path fill="none" stroke="#000000" d="M 832 304 L 905.18994140625 304 L 905.18994140625 336 L 832 336 L 832 304 Z Z" stroke-miterlimit="10"/></g><g transform="translate(-166,-110) scale(1,1)"><g><path fill="none" stroke="none"/><text fill="#000000" stroke="none" font-family="Arial" font-size="13px" font-style="normal" font-weight="normal" text-decoration="none" x="842.594970703125" y="325.5">删除基金</text></g></g><g transform="translate(-166,-110) scale(1,1)"><path fill="none" stroke="#000000" d="M 768 392 L 768 336" stroke-miterlimit="10"/></g><g transform="translate(-166,-110) scale(1,1)"><path fill="#000000" stroke="none" d="M 772.209517756016 346.16267485762415 L 768 336 L 763.790482243984 346.16267485762415"/></g><g transform="translate(-166,-110) scale(1,1)"><path fill="none" stroke="#000000" d="M 772.209517756016 346.16267485762415 L 768 336 L 763.790482243984 346.16267485762415 L 772.209517756016 346.16267485762415" stroke-miterlimit="10"/></g><g transform="translate(-166,-110) scale(1,1)"><path fill="none" stroke="#000000" d="M 768 392 L 768 384 M 768 384 A 8 8 0 0 0 760 376 L 691 376 M 691 376 A 8 8 0 0 1 683 368 L 683 336" stroke-miterlimit="10"/></g><g transform="translate(-166,-110) scale(1,1)"><path fill="#000000" stroke="none" d="M 687.209517756016 346.16267485762415 L 683 336 L 678.790482243984 346.16267485762415"/></g><g transform="translate(-166,-110) scale(1,1)"><path fill="none" stroke="#000000" d="M 687.209517756016 346.16267485762415 L 683 336 L 678.790482243984 346.16267485762415 L 687.209517756016 346.16267485762415" stroke-miterlimit="10"/></g><g transform="translate(-166,-110) scale(1,1)"><path fill="none" stroke="#000000" d="M 768 392 L 768 384 M 768 384 A 8 8 0 0 1 776 376 L 856 376 M 856 376 A 8 8 0 0 0 864 368 L 864 336" stroke-miterlimit="10"/></g><g transform="translate(-166,-110) scale(1,1)"><path fill="#000000" stroke="none" d="M 868.209517756016 346.16267485762415 L 864 336 L 859.790482243984 346.16267485762415"/></g><g transform="translate(-166,-110) scale(1,1)"><path fill="none" stroke="#000000" d="M 868.209517756016 346.16267485762415 L 864 336 L 859.790482243984 346.16267485762415 L 868.209517756016 346.16267485762415" stroke-miterlimit="10"/></g><g transform="translate(-166,-110) scale(1,1)"><path fill="none" stroke="#000000" d="M 536 528 L 489 528" stroke-miterlimit="10"/></g><g transform="translate(-166,-110) scale(1,1)"><path fill="#000000" stroke="none" d="M 499.16267485762415 523.790482243984 L 489 528 L 499.16267485762415 532.209517756016"/></g><g transform="translate(-166,-110) scale(1,1)"><path fill="none" stroke="#000000" d="M 499.16267485762415 523.790482243984 L 489 528 L 499.16267485762415 532.209517756016 L 499.16267485762415 523.790482243984" stroke-miterlimit="10"/></g><g transform="translate(-166,-110) scale(1,1)"><rect fill="#ffffff" stroke="none" x="632" y="216" width="73.18994140625" height="32"/></g><g transform="translate(-166,-110) scale(1,1)"><path fill="none" stroke="#000000" d="M 632 216 L 705.18994140625 216 L 705.18994140625 248 L 632 248 L 632 216 Z Z" stroke-miterlimit="10"/></g><g transform="translate(-166,-110) scale(1,1)"><g><path fill="none" stroke="none"/><text fill="#000000" stroke="none" font-family="Arial" font-size="13px" font-style="normal" font-weight="normal" text-decoration="none" x="642.594970703125" y="237.5">填写信息</text></g></g><g transform="translate(-166,-110) scale(1,1)"><path fill="#ffffff" stroke="none" d="M 592 147.5 L 669.5 120 L 747 147.5 L 669.5 175 L 592 147.5"/></g><g transform="translate(-166,-110) scale(1,1)"><path fill="none" stroke="#000000" d="M 592 147.5 L 669.5 120 L 747 147.5 L 669.5 175 L 592 147.5 L 592 147.5" stroke-miterlimit="10"/></g><g transform="translate(-166,-110) scale(1,1)"><g><path fill="none" stroke="none"/><text fill="#000000" stroke="none" font-family="Arial" font-size="13px" font-style="normal" font-weight="normal" text-decoration="none" x="630.5" y="153">信息是否合法</text></g></g><g transform="translate(-166,-110) scale(1,1)"><rect fill="#ffffff" stroke="none" x="792" y="128" width="126.61181640625" height="32"/></g><g transform="translate(-166,-110) scale(1,1)"><path fill="none" stroke="#000000" d="M 792 128 L 918.61181640625 128 L 918.61181640625 160 L 792 160 L 792 128 Z Z" stroke-miterlimit="10"/></g><g transform="translate(-166,-110) scale(1,1)"><g><path fill="none" stroke="none"/><text fill="#000000" stroke="none" font-family="Arial" font-size="13px" font-style="normal" font-weight="normal" text-decoration="none" x="801.5" y="150">修改成功/新建成功</text></g></g><g transform="translate(-166,-110) scale(1,1)"><path fill="none" stroke="#000000" d="M 668 304 L 668 248" stroke-miterlimit="10"/></g><g transform="translate(-166,-110) scale(1,1)"><path fill="#000000" stroke="none" d="M 672.209517756016 258.16267485762415 L 668 248 L 663.790482243984 258.16267485762415"/></g><g transform="translate(-166,-110) scale(1,1)"><path fill="none" stroke="#000000" d="M 672.209517756016 258.16267485762415 L 668 248 L 663.790482243984 258.16267485762415 L 672.209517756016 258.16267485762415" stroke-miterlimit="10"/></g><g transform="translate(-166,-110) scale(1,1)"><path fill="none" stroke="#000000" d="M 669 216 L 669 175" stroke-miterlimit="10"/></g><g transform="translate(-166,-110) scale(1,1)"><path fill="#000000" stroke="none" d="M 673.209517756016 185.16267485762415 L 669 175 L 664.790482243984 185.16267485762415"/></g><g transform="translate(-166,-110) scale(1,1)"><path fill="none" stroke="#000000" d="M 673.209517756016 185.16267485762415 L 669 175 L 664.790482243984 185.16267485762415 L 673.209517756016 185.16267485762415" stroke-miterlimit="10"/></g><g transform="translate(-166,-110) scale(1,1)"><path fill="none" stroke="#000000" d="M 747 146 L 792 146" stroke-miterlimit="10"/></g><g transform="translate(-166,-110) scale(1,1)"><path fill="#000000" stroke="none" d="M 781.8373251423759 150.209517756016 L 792 146 L 781.8373251423758 141.790482243984"/></g><g transform="translate(-166,-110) scale(1,1)"><path fill="none" stroke="#000000" d="M 781.8373251423759 150.209517756016 L 792 146 L 781.8373251423758 141.790482243984 L 781.8373251423759 150.209517756016" stroke-miterlimit="10"/></g><g transform="translate(-166,-110) scale(1,1)"><g><path fill="none" stroke="none"/><text fill="#000000" stroke="none" font-family="Arial" font-size="13px" font-style="normal" font-weight="normal" text-decoration="none" x="762.5" y="136.5">是</text></g></g><g transform="translate(-166,-110) scale(1,1)"><path fill="none" stroke="#000000" d="M 592 144 L 520 144 M 520 144 A 8 8 0 0 0 512 152 L 512 224 M 512 224 A 8 8 0 0 0 520 232 L 632 232" stroke-miterlimit="10"/></g><g transform="translate(-166,-110) scale(1,1)"><path fill="#000000" stroke="none" d="M 621.8373251423759 236.209517756016 L 632 232 L 621.8373251423758 227.790482243984"/></g><g transform="translate(-166,-110) scale(1,1)"><path fill="none" stroke="#000000" d="M 621.8373251423759 236.209517756016 L 632 232 L 621.8373251423758 227.790482243984 L 621.8373251423759 236.209517756016" stroke-miterlimit="10"/></g><g transform="translate(-166,-110) scale(1,1)"><g><path fill="none" stroke="none"/><text fill="#000000" stroke="none" font-family="Arial" font-size="13px" font-style="normal" font-weight="normal" text-decoration="none" x="519.5" y="192.5">否</text></g></g><g transform="translate(-166,-110) scale(1,1)"><path fill="none" stroke="#000000" d="M 768 304 L 768 240 M 768 240 A 8 8 0 0 0 760 232 L 705 232" stroke-miterlimit="10"/></g><g transform="translate(-166,-110) scale(1,1)"><path fill="#000000" stroke="none" d="M 715.1626748576241 227.790482243984 L 705 232 L 715.1626748576241 236.209517756016"/></g><g transform="translate(-166,-110) scale(1,1)"><path fill="none" stroke="#000000" d="M 715.1626748576241 227.790482243984 L 705 232 L 715.1626748576241 236.209517756016 L 715.1626748576241 227.790482243984" stroke-miterlimit="10"/></g><g transform="translate(-166,-110) scale(1,1)"><path fill="#ffffff" stroke="none" d="M 896 264 L 999.5 240 L 1103 264 L 999.5 288 L 896 264"/></g><g transform="translate(-166,-110) scale(1,1)"><path fill="none" stroke="#000000" d="M 896 264 L 999.5 240 L 1103 264 L 999.5 288 L 896 264 L 896 264" stroke-miterlimit="10"/></g><g transform="translate(-166,-110) scale(1,1)"><g><path fill="none" stroke="none"/><text fill="#000000" stroke="none" font-family="Arial" font-size="13px" font-style="normal" font-weight="normal" text-decoration="none" x="947.5" y="269.5">二次确认是否删除</text></g></g><g transform="translate(-166,-110) scale(1,1)"><path fill="#ffffff" stroke="none" d="M 1152 264 L 1255.5 240 L 1359 264 L 1255.5 288 L 1152 264"/></g><g transform="translate(-166,-110) scale(1,1)"><path fill="none" stroke="#000000" d="M 1152 264 L 1255.5 240 L 1359 264 L 1255.5 288 L 1152 264 L 1152 264" stroke-miterlimit="10"/></g><g transform="translate(-166,-110) scale(1,1)"><g><path fill="none" stroke="none"/><text fill="#000000" stroke="none" font-family="Arial" font-size="13px" font-style="normal" font-weight="normal" text-decoration="none" x="1203.5" y="269.5">基金是否仍有持仓</text></g></g><g transform="translate(-166,-110) scale(1,1)"><path fill="none" stroke="#000000" d="M 864 304 L 864 272 M 864 272 A 8 8 0 0 1 872 264 L 896 264" stroke-miterlimit="10"/></g><g transform="translate(-166,-110) scale(1,1)"><path fill="#000000" stroke="none" d="M 885.8373251423759 268.209517756016 L 896 264 L 885.8373251423758 259.790482243984"/></g><g transform="translate(-166,-110) scale(1,1)"><path fill="none" stroke="#000000" d="M 885.8373251423759 268.209517756016 L 896 264 L 885.8373251423758 259.790482243984 L 885.8373251423759 268.209517756016" stroke-miterlimit="10"/></g><g transform="translate(-166,-110) scale(1,1)"><path fill="none" stroke="#000000" d="M 1103 264 L 1152 264" stroke-miterlimit="10"/></g><g transform="translate(-166,-110) scale(1,1)"><path fill="#000000" stroke="none" d="M 1141.837325142376 268.209517756016 L 1152 264 L 1141.837325142376 259.790482243984"/></g><g transform="translate(-166,-110) scale(1,1)"><path fill="none" stroke="#000000" d="M 1141.837325142376 268.209517756016 L 1152 264 L 1141.837325142376 259.790482243984 L 1141.837325142376 268.209517756016" stroke-miterlimit="10"/></g><g transform="translate(-166,-110) scale(1,1)"><g><path fill="none" stroke="none"/><text fill="#000000" stroke="none" font-family="Arial" font-size="13px" font-style="normal" font-weight="normal" text-decoration="none" x="1120.5" y="254.5">是</text></g></g><g transform="translate(-166,-110) scale(1,1)"><path fill="none" stroke="#000000" d="M 1000 288 L 1000 416 M 1000 416 A 8 8 0 0 1 992 424 L 832 424" stroke-miterlimit="10"/></g><g transform="translate(-166,-110) scale(1,1)"><path fill="#000000" stroke="none" d="M 842.1626748576241 419.790482243984 L 832 424 L 842.1626748576241 428.209517756016"/></g><g transform="translate(-166,-110) scale(1,1)"><path fill="none" stroke="#000000" d="M 842.1626748576241 419.790482243984 L 832 424 L 842.1626748576241 428.209517756016 L 842.1626748576241 419.790482243984" stroke-miterlimit="10"/></g><g transform="translate(-166,-110) scale(1,1)"><g><path fill="none" stroke="none"/><text fill="#000000" stroke="none" font-family="Arial" font-size="13px" font-style="normal" font-weight="normal" text-decoration="none" x="983.5" y="306.5">否</text></g></g><g transform="translate(-166,-110) scale(1,1)"><rect fill="#ffffff" stroke="none" x="1208" y="320" width="97" height="32"/></g><g transform="translate(-166,-110) scale(1,1)"><path fill="none" stroke="#000000" d="M 1208 320 L 1305 320 L 1305 352 L 1208 352 L 1208 320 Z Z" stroke-miterlimit="10"/></g><g transform="translate(-166,-110) scale(1,1)"><g><path fill="none" stroke="none"/><text fill="#000000" stroke="none" font-family="Arial" font-size="13px" font-style="normal" font-weight="normal" text-decoration="none" x="1217.5" y="341.5">提示无法删除</text></g></g><g transform="translate(-166,-110) scale(1,1)"><path fill="none" stroke="#000000" d="M 1208 336 L 1008 336 M 1008 336 A 8 8 0 0 0 1000 344 L 1000 416 M 1000 416 A 8 8 0 0 1 992 424 L 832 424" stroke-miterlimit="10"/></g><g transform="translate(-166,-110) scale(1,1)"><path fill="#000000" stroke="none" d="M 842.1626748576241 419.790482243984 L 832 424 L 842.1626748576241 428.209517756016"/></g><g transform="translate(-166,-110) scale(1,1)"><path fill="none" stroke="#000000" d="M 842.1626748576241 419.790482243984 L 832 424 L 842.1626748576241 428.209517756016 L 842.1626748576241 419.790482243984" stroke-miterlimit="10"/></g><g transform="translate(-166,-110) scale(1,1)"><path fill="none" stroke="#000000" d="M 1255 288 L 1255 320" stroke-miterlimit="10"/></g><g transform="translate(-166,-110) scale(1,1)"><path fill="#000000" stroke="none" d="M 1250.7904822439841 309.83732514237585 L 1255 320 L 1259.2095177560159 309.83732514237585"/></g><g transform="translate(-166,-110) scale(1,1)"><path fill="none" stroke="#000000" d="M 1250.7904822439841 309.83732514237585 L 1255 320 L 1259.2095177560159 309.83732514237585 L 1250.7904822439841 309.83732514237585" stroke-miterlimit="10"/></g><g transform="translate(-166,-110) scale(1,1)"><g><path fill="none" stroke="none"/><text fill="#000000" stroke="none" font-family="Arial" font-size="13px" font-style="normal" font-weight="normal" text-decoration="none" x="1262.5" y="308.5">是</text></g></g><g transform="translate(-166,-110) scale(1,1)"><rect fill="#ffffff" stroke="none" x="1184" y="168" width="136" height="32"/></g><g transform="translate(-166,-110) scale(1,1)"><path fill="none" stroke="#000000" d="M 1184 168 L 1320 168 L 1320 200 L 1184 200 L 1184 168 Z Z" stroke-miterlimit="10"/></g><g transform="translate(-166,-110) scale(1,1)"><g><path fill="none" stroke="none"/><text fill="#000000" stroke="none" font-family="Arial" font-size="13px" font-style="normal" font-weight="normal" text-decoration="none" x="1193.5" y="189.5">将基金状态记为删除</text></g></g><g transform="translate(-166,-110) scale(1,1)"><path fill="none" stroke="#000000" d="M 1253 240 L 1253 200" stroke-miterlimit="10"/></g><g transform="translate(-166,-110) scale(1,1)"><path fill="#000000" stroke="none" d="M 1257.2095177560159 210.16267485762415 L 1253 200 L 1248.7904822439841 210.16267485762415"/></g><g transform="translate(-166,-110) scale(1,1)"><path fill="none" stroke="#000000" d="M 1257.2095177560159 210.16267485762415 L 1253 200 L 1248.7904822439841 210.16267485762415 L 1257.2095177560159 210.16267485762415" stroke-miterlimit="10"/></g><g transform="translate(-166,-110) scale(1,1)"><g><path fill="none" stroke="none"/><text fill="#000000" stroke="none" font-family="Arial" font-size="13px" font-style="normal" font-weight="normal" text-decoration="none" x="1231.5" y="224.5">否</text></g></g><g transform="translate(-166,-110) scale(1,1)"><rect fill="#ffffff" stroke="none" x="248" y="576" width="73.18994140625" height="32"/></g><g transform="translate(-166,-110) scale(1,1)"><path fill="none" stroke="#000000" d="M 248 576 L 321.18994140625 576 L 321.18994140625 608 L 248 608 L 248 576 Z Z" stroke-miterlimit="10"/></g><g transform="translate(-166,-110) scale(1,1)"><g><path fill="none" stroke="none"/><text fill="#000000" stroke="none" font-family="Arial" font-size="13px" font-style="normal" font-weight="normal" text-decoration="none" x="271.594970703125" y="597.5">申购</text></g></g><g transform="translate(-166,-110) scale(1,1)"><rect fill="#ffffff" stroke="none" x="248" y="632" width="73.18994140625" height="32"/></g><g transform="translate(-166,-110) scale(1,1)"><path fill="none" stroke="#000000" d="M 248 632 L 321.18994140625 632 L 321.18994140625 664 L 248 664 L 248 632 Z Z" stroke-miterlimit="10"/></g><g transform="translate(-166,-110) scale(1,1)"><g><path fill="none" stroke="none"/><text fill="#000000" stroke="none" font-family="Arial" font-size="13px" font-style="normal" font-weight="normal" text-decoration="none" x="271.594970703125" y="653.5">赎回</text></g></g><g transform="translate(-166,-110) scale(1,1)"><rect fill="#ffffff" stroke="none" x="248" y="688" width="73.18994140625" height="32"/></g><g transform="translate(-166,-110) scale(1,1)"><path fill="none" stroke="#000000" d="M 248 688 L 321.18994140625 688 L 321.18994140625 720 L 248 720 L 248 688 Z Z" stroke-miterlimit="10"/></g><g transform="translate(-166,-110) scale(1,1)"><g><path fill="none" stroke="none"/><text fill="#000000" stroke="none" font-family="Arial" font-size="13px" font-style="normal" font-weight="normal" text-decoration="none" x="271.594970703125" y="710">清算</text></g></g><g transform="translate(-166,-110) scale(1,1)"><path fill="#d8ffd8" stroke="none" d="M 392 648 L 448 608 L 504 648 L 448 688 L 392 648"/></g><g transform="translate(-166,-110) scale(1,1)"><path fill="none" stroke="#000000" d="M 392 648 L 448 608 L 504 648 L 448 688 L 392 648 L 392 648" stroke-miterlimit="10"/></g><g transform="translate(-166,-110) scale(1,1)"><g><path fill="none" stroke="none"/><text fill="#000000" stroke="none" font-family="Arial" font-size="13px" font-style="normal" font-weight="normal" text-decoration="none" x="422" y="653.5">业务管理</text></g></g><g transform="translate(-166,-110) scale(1,1)"><path fill="none" stroke="#000000" d="M 448 544 L 448 608" stroke-miterlimit="10"/></g><g transform="translate(-166,-110) scale(1,1)"><path fill="#000000" stroke="none" d="M 443.790482243984 597.8373251423759 L 448 608 L 452.209517756016 597.8373251423759"/></g><g transform="translate(-166,-110) scale(1,1)"><path fill="none" stroke="#000000" d="M 443.790482243984 597.8373251423759 L 448 608 L 452.209517756016 597.8373251423759 L 443.790482243984 597.8373251423759" stroke-miterlimit="10"/></g><g transform="translate(-166,-110) scale(1,1)"><path fill="none" stroke="#000000" d="M 392 648 L 321 648" stroke-miterlimit="10"/></g><g transform="translate(-166,-110) scale(1,1)"><path fill="#000000" stroke="none" d="M 331.16267485762415 643.790482243984 L 321 648 L 331.16267485762415 652.209517756016"/></g><g transform="translate(-166,-110) scale(1,1)"><path fill="none" stroke="#000000" d="M 331.16267485762415 643.790482243984 L 321 648 L 331.16267485762415 652.209517756016 L 331.16267485762415 643.790482243984" stroke-miterlimit="10"/></g><g transform="translate(-166,-110) scale(1,1)"><path fill="none" stroke="#000000" d="M 392 648 L 352 648 M 352 648 A 8 8 0 0 1 344 640 L 344 600 M 344 600 A 8 8 0 0 0 336 592 L 321 592" stroke-miterlimit="10"/></g><g transform="translate(-166,-110) scale(1,1)"><path fill="#000000" stroke="none" d="M 331.16267485762415 587.790482243984 L 321 592 L 331.16267485762415 596.209517756016"/></g><g transform="translate(-166,-110) scale(1,1)"><path fill="none" stroke="#000000" d="M 331.16267485762415 587.790482243984 L 321 592 L 331.16267485762415 596.209517756016 L 331.16267485762415 587.790482243984" stroke-miterlimit="10"/></g><g transform="translate(-166,-110) scale(1,1)"><path fill="none" stroke="#000000" d="M 392 648 L 352 648 M 352 648 A 8 8 0 0 0 344 656 L 344 696 M 344 696 A 8 8 0 0 1 336 704 L 321 704" stroke-miterlimit="10"/></g><g transform="translate(-166,-110) scale(1,1)"><path fill="#000000" stroke="none" d="M 331.16267485762415 699.790482243984 L 321 704 L 331.16267485762415 708.209517756016"/></g><g transform="translate(-166,-110) scale(1,1)"><path fill="none" stroke="#000000" d="M 331.16267485762415 699.790482243984 L 321 704 L 331.16267485762415 708.209517756016 L 331.16267485762415 699.790482243984" stroke-miterlimit="10"/></g><g transform="translate(-166,-110) scale(1,1)"><rect fill="#ffffff" stroke="none" x="216" y="448" width="126.61181640625" height="32"/></g><g transform="translate(-166,-110) scale(1,1)"><path fill="none" stroke="#000000" d="M 216 448 L 342.61181640625 448 L 342.61181640625 480 L 216 480 L 216 448 Z Z" stroke-miterlimit="10"/></g><g transform="translate(-166,-110) scale(1,1)"><g><path fill="none" stroke="none"/><text fill="#000000" stroke="none" font-family="Arial" font-size="13px" font-style="normal" font-weight="normal" text-decoration="none" x="225.5" y="469.5">填写申购/赎回份额</text></g></g><g transform="translate(-166,-110) scale(1,1)"><path fill="none" stroke="#000000" d="M 280 576 L 280 480" stroke-miterlimit="10"/></g><g transform="translate(-166,-110) scale(1,1)"><path fill="#000000" stroke="none" d="M 284.209517756016 490.16267485762415 L 280 480 L 275.790482243984 490.16267485762415"/></g><g transform="translate(-166,-110) scale(1,1)"><path fill="none" stroke="#000000" d="M 284.209517756016 490.16267485762415 L 280 480 L 275.790482243984 490.16267485762415 L 284.209517756016 490.16267485762415" stroke-miterlimit="10"/></g><g transform="translate(-166,-110) scale(1,1)"><path fill="none" stroke="#000000" d="M 248 648 L 184 648 M 184 648 A 8 8 0 0 1 176 640 L 176 472 M 176 472 A 8 8 0 0 1 184 464 L 216 464" stroke-miterlimit="10"/></g><g transform="translate(-166,-110) scale(1,1)"><path fill="#000000" stroke="none" d="M 205.83732514237585 468.209517756016 L 216 464 L 205.83732514237585 459.790482243984"/></g><g transform="translate(-166,-110) scale(1,1)"><path fill="none" stroke="#000000" d="M 205.83732514237585 468.209517756016 L 216 464 L 205.83732514237585 459.790482243984 L 205.83732514237585 468.209517756016" stroke-miterlimit="10"/></g><g transform="translate(-166,-110) scale(1,1)"><rect fill="#ffffff" stroke="none" x="224" y="368" width="119" height="39"/></g><g transform="translate(-166,-110) scale(1,1)"><path fill="none" stroke="#000000" d="M 224 368 L 343 368 L 343 407 L 224 407 L 224 368 Z Z" stroke-miterlimit="10"/></g><g transform="translate(-166,-110) scale(1,1)"><g><path fill="none" stroke="none"/><text fill="#000000" stroke="none" font-family="Arial" font-size="13px" font-style="normal" font-weight="normal" text-decoration="none" x="257.5" y="389.5">记录交易</text></g></g><g transform="translate(-166,-110) scale(1,1)"><path fill="none" stroke="#000000" d="M 282 448 L 282 407" stroke-miterlimit="10"/></g><g transform="translate(-166,-110) scale(1,1)"><path fill="#000000" stroke="none" d="M 286.209517756016 417.16267485762415 L 282 407 L 277.790482243984 417.16267485762415"/></g><g transform="translate(-166,-110) scale(1,1)"><path fill="none" stroke="#000000" d="M 286.209517756016 417.16267485762415 L 282 407 L 277.790482243984 417.16267485762415 L 286.209517756016 417.16267485762415" stroke-miterlimit="10"/></g><g transform="translate(-166,-110) scale(1,1)"><rect fill="#ffffff" stroke="none" x="232" y="768" width="111" height="39"/></g><g transform="translate(-166,-110) scale(1,1)"><path fill="none" stroke="#000000" d="M 232 768 L 343 768 L 343 807 L 232 807 L 232 768 Z Z" stroke-miterlimit="10"/></g><g transform="translate(-166,-110) scale(1,1)"><g><path fill="none" stroke="none"/><text fill="#000000" stroke="none" font-family="Arial" font-size="13px" font-style="normal" font-weight="normal" text-decoration="none" x="261.5" y="790">完成清算</text></g></g><g transform="translate(-166,-110) scale(1,1)"><path fill="none" stroke="#000000" d="M 285 720 L 285 768" stroke-miterlimit="10"/></g><g transform="translate(-166,-110) scale(1,1)"><path fill="#000000" stroke="none" d="M 280.790482243984 757.8373251423759 L 285 768 L 289.209517756016 757.8373251423759"/></g><g transform="translate(-166,-110) scale(1,1)"><path fill="none" stroke="#000000" d="M 280.790482243984 757.8373251423759 L 285 768 L 289.209517756016 757.8373251423759 L 280.790482243984 757.8373251423759" stroke-miterlimit="10"/></g></g></svg>