<svg version="1.1" xmlns="http://www.w3.org/2000/svg" xmlns:xlink="http://www.w3.org/1999/xlink" width="1796" height="884"><defs/><g><g transform="translate(-190,-902) scale(1,1)"><rect fill="#C0C0C0" stroke="none" x="1199" y="935" width="188.4000000000001" height="15" opacity="0.2"/></g><g transform="translate(-190,-902) scale(1,1)"><rect fill="#C0C0C0" stroke="none" x="1199" y="949" width="471" height="353" opacity="0.2"/></g><g transform="translate(-190,-902) scale(1,1)"><rect fill="#ffffff" stroke="none" x="1192" y="943" width="471" height="352"/></g><g transform="translate(-190,-902) scale(1,1)"><path fill="none" stroke="#000000" d="M 1192 943 L 1663 943 L 1663 1295 L 1192 1295 L 1192 943 Z Z" stroke-miterlimit="10"/></g><g transform="translate(-190,-902) scale(1,1)"><rect fill="#ffffff" stroke="none" x="1192" y="928" width="188.4000000000001" height="15"/></g><g transform="translate(-190,-902) scale(1,1)"><path fill="none" stroke="#000000" d="M 1192 928 L 1380.4 928 L 1380.4 943 L 1192 943 L 1192 928 Z Z" stroke-miterlimit="10"/></g><g transform="translate(-190,-902) scale(1,1)"><rect fill="#ffffff" stroke="none" x="1192" y="942" width="471" height="353"/></g><g transform="translate(-190,-902) scale(1,1)"><path fill="none" stroke="#000000" d="M 1192 942 L 1663 942 L 1663 1295 L 1192 1295 L 1192 942 Z Z" stroke-miterlimit="10"/></g><g transform="translate(-190,-902) scale(1,1)"><g><path fill="none" stroke="none"/><text fill="#000000" stroke="none" font-family="Arial" font-size="13px" font-style="normal" font-weight="bold" text-decoration="none" x="1386.319580078125" y="961">ClientSystem</text></g></g><g transform="translate(-190,-902) scale(1,1)"><rect fill="#C0C0C0" stroke="none" x="439" y="919" width="204.79999999999995" height="15" opacity="0.2"/></g><g transform="translate(-190,-902) scale(1,1)"><rect fill="#C0C0C0" stroke="none" x="439" y="933" width="512" height="322" opacity="0.2"/></g><g transform="translate(-190,-902) scale(1,1)"><rect fill="#ffffff" stroke="none" x="432" y="927" width="512" height="321"/></g><g transform="translate(-190,-902) scale(1,1)"><path fill="none" stroke="#000000" d="M 432 927 L 944 927 L 944 1248 L 432 1248 L 432 927 Z Z" stroke-miterlimit="10"/></g><g transform="translate(-190,-902) scale(1,1)"><rect fill="#ffffff" stroke="none" x="432" y="912" width="204.79999999999995" height="15"/></g><g transform="translate(-190,-902) scale(1,1)"><path fill="none" stroke="#000000" d="M 432 912 L 636.8 912 L 636.8 927 L 432 927 L 432 912 Z Z" stroke-miterlimit="10"/></g><g transform="translate(-190,-902) scale(1,1)"><rect fill="#ffffff" stroke="none" x="432" y="926" width="512" height="322"/></g><g transform="translate(-190,-902) scale(1,1)"><path fill="none" stroke="#000000" d="M 432 926 L 944 926 L 944 1248 L 432 1248 L 432 926 Z Z" stroke-miterlimit="10"/></g><g transform="translate(-190,-902) scale(1,1)"><g><path fill="none" stroke="none"/><text fill="#000000" stroke="none" font-family="Arial" font-size="13px" font-style="normal" font-weight="bold" text-decoration="none" x="637.425048828125" y="945">OperatorSystem</text></g></g><g transform="translate(-190,-902) scale(1,1)"><rect fill="#C0C0C0" stroke="none" x="495" y="1071" width="106.4873046875" height="44" opacity="0.2"/></g><g transform="translate(-190,-902) scale(1,1)"><rect fill="#ffffff" stroke="none" x="488" y="1064" width="106.4873046875" height="44"/></g><g transform="translate(-190,-902) scale(1,1)"><path fill="none" stroke="#000000" d="M 488 1064 L 594.4873046875 1064 L 594.4873046875 1108 L 488 1108 L 488 1064 Z Z" stroke-miterlimit="10"/></g><g transform="translate(-190,-902) scale(1,1)"><path fill="none" stroke="#000000" d="M 488 1089 L 594.4873046875 1089" stroke-miterlimit="10"/></g><g transform="translate(-190,-902) scale(1,1)"><path fill="none" stroke="#000000" d="M 488 1099 L 594.4873046875 1099" stroke-miterlimit="10"/></g><g transform="translate(-190,-902) scale(1,1)"><g><path fill="none" stroke="none"/><text fill="#000000" stroke="none" font-family="Arial" font-size="13px" font-style="normal" font-weight="bold" text-decoration="none" x="492.5" y="1082">LoginController</text></g></g><g transform="translate(-190,-902) scale(1,1)"><rect fill="#C0C0C0" stroke="none" x="727" y="1055" width="117.36083984375" height="44" opacity="0.2"/></g><g transform="translate(-190,-902) scale(1,1)"><rect fill="#ffffff" stroke="none" x="720" y="1048" width="117.36083984375" height="44"/></g><g transform="translate(-190,-902) scale(1,1)"><path fill="none" stroke="#000000" d="M 720 1048 L 837.36083984375 1048 L 837.36083984375 1092 L 720 1092 L 720 1048 Z Z" stroke-miterlimit="10"/></g><g transform="translate(-190,-902) scale(1,1)"><path fill="none" stroke="#000000" d="M 720 1073 L 837.36083984375 1073" stroke-miterlimit="10"/></g><g transform="translate(-190,-902) scale(1,1)"><path fill="none" stroke="#000000" d="M 720 1083 L 837.36083984375 1083" stroke-miterlimit="10"/></g><g transform="translate(-190,-902) scale(1,1)"><g><path fill="none" stroke="none"/><text fill="#000000" stroke="none" font-family="Arial" font-size="13px" font-style="normal" font-weight="bold" text-decoration="none" x="724.5" y="1066">OperatorManager</text></g></g><g transform="translate(-190,-902) scale(1,1)"><path fill="none" stroke="#000000" d="M 571 1109 L 635 1159" stroke-miterlimit="10" stroke-dasharray="3"/></g><g transform="translate(-190,-902) scale(1,1)"><path fill="#FFFFFF" stroke="none" d="M 613.7999999677729 1153.1212247335375 L 635 1159 L 624.1662580720446 1139.8524143600698"/></g><g transform="translate(-190,-902) scale(1,1)"><path fill="none" stroke="#000000" d="M 613.7999999677729 1153.1212247335375 L 635 1159 L 624.1662580720446 1139.8524143600698 L 613.7999999677729 1153.1212247335375" stroke-miterlimit="10"/></g><g transform="translate(-190,-902) scale(1,1)"><path fill="none" stroke="#000000" d="M 756 1093 L 691 1159" stroke-miterlimit="10" stroke-dasharray="3"/></g><g transform="translate(-190,-902) scale(1,1)"><path fill="#FFFFFF" stroke="none" d="M 699.2636394061984 1138.610976880578 L 691 1159 L 711.2604919709158 1150.4260589518906"/></g><g transform="translate(-190,-902) scale(1,1)"><path fill="none" stroke="#000000" d="M 699.2636394061984 1138.610976880578 L 691 1159 L 711.2604919709158 1150.4260589518906 L 699.2636394061984 1138.610976880578" stroke-miterlimit="10"/></g><g transform="translate(-190,-902) scale(1,1)"><path fill="none" stroke="#000000" d="M 571 1063 L 625 1021" stroke-miterlimit="10"/></g><g transform="translate(-190,-902) scale(1,1)"><path fill="none" stroke="#000000" d="M 619.5624639803901 1030.5620710118387 L 625 1021 L 614.3936761529293 1023.9164866622461" stroke-miterlimit="10"/></g><g transform="translate(-190,-902) scale(1,1)"><path fill="none" stroke="#000000" d="M 739 1047 L 689 1018" stroke-miterlimit="10"/></g><g transform="translate(-190,-902) scale(1,1)"><path fill="none" stroke="#000000" d="M 699.9030219255807 1019.4574336658344 L 689 1018 L 695.6790395107627 1026.7401619672448" stroke-miterlimit="10"/></g><g transform="translate(-190,-902) scale(1,1)"><rect fill="#C0C0C0" stroke="none" x="1295" y="1199" width="50.919921875" height="44" opacity="0.2"/></g><g transform="translate(-190,-902) scale(1,1)"><rect fill="#ffffff" stroke="none" x="1288" y="1192" width="50.919921875" height="44"/></g><g transform="translate(-190,-902) scale(1,1)"><path fill="none" stroke="#000000" d="M 1288 1192 L 1338.919921875 1192 L 1338.919921875 1236 L 1288 1236 L 1288 1192 Z Z" stroke-miterlimit="10"/></g><g transform="translate(-190,-902) scale(1,1)"><path fill="none" stroke="#000000" d="M 1288 1217 L 1338.919921875 1217" stroke-miterlimit="10"/></g><g transform="translate(-190,-902) scale(1,1)"><path fill="none" stroke="#000000" d="M 1288 1227 L 1338.919921875 1227" stroke-miterlimit="10"/></g><g transform="translate(-190,-902) scale(1,1)"><g><path fill="none" stroke="none"/><text fill="#000000" stroke="none" font-family="Arial" font-size="13px" font-style="normal" font-weight="bold" text-decoration="none" x="1299.00634765625" y="1210">User</text></g></g><g transform="translate(-190,-902) scale(1,1)"><rect fill="#C0C0C0" stroke="none" x="1279" y="1119" width="91.3671875" height="44" opacity="0.2"/></g><g transform="translate(-190,-902) scale(1,1)"><rect fill="#ffffff" stroke="none" x="1272" y="1112" width="91.3671875" height="44"/></g><g transform="translate(-190,-902) scale(1,1)"><path fill="none" stroke="#000000" d="M 1272 1112 L 1363.3671875 1112 L 1363.3671875 1156 L 1272 1156 L 1272 1112 Z Z" stroke-miterlimit="10"/></g><g transform="translate(-190,-902) scale(1,1)"><path fill="none" stroke="#000000" d="M 1272 1137 L 1363.3671875 1137" stroke-miterlimit="10"/></g><g transform="translate(-190,-902) scale(1,1)"><path fill="none" stroke="#000000" d="M 1272 1147 L 1363.3671875 1147" stroke-miterlimit="10"/></g><g transform="translate(-190,-902) scale(1,1)"><g><path fill="none" stroke="none"/><text fill="#000000" stroke="none" font-family="Arial" font-size="13px" font-style="normal" font-weight="bold" text-decoration="none" x="1276.5" y="1130">UserManager</text></g></g><g transform="translate(-190,-902) scale(1,1)"><rect fill="#C0C0C0" stroke="none" x="1447" y="1199" width="124.578125" height="44" opacity="0.2"/></g><g transform="translate(-190,-902) scale(1,1)"><rect fill="#ffffff" stroke="none" x="1440" y="1192" width="124.578125" height="44"/></g><g transform="translate(-190,-902) scale(1,1)"><path fill="none" stroke="#000000" d="M 1440 1192 L 1564.578125 1192 L 1564.578125 1236 L 1440 1236 L 1440 1192 Z Z" stroke-miterlimit="10"/></g><g transform="translate(-190,-902) scale(1,1)"><path fill="none" stroke="#000000" d="M 1440 1217 L 1564.578125 1217" stroke-miterlimit="10"/></g><g transform="translate(-190,-902) scale(1,1)"><path fill="none" stroke="#000000" d="M 1440 1227 L 1564.578125 1227" stroke-miterlimit="10"/></g><g transform="translate(-190,-902) scale(1,1)"><g><path fill="none" stroke="none"/><text fill="#000000" stroke="none" font-family="Arial" font-size="13px" font-style="normal" font-weight="bold" text-decoration="none" x="1444.5" y="1210">UserModifyRecord</text></g></g><g transform="translate(-190,-902) scale(1,1)"><rect fill="#C0C0C0" stroke="none" x="1455" y="1127" width="107.2490234375" height="44" opacity="0.2"/></g><g transform="translate(-190,-902) scale(1,1)"><rect fill="#ffffff" stroke="none" x="1448" y="1120" width="107.2490234375" height="44"/></g><g transform="translate(-190,-902) scale(1,1)"><path fill="none" stroke="#000000" d="M 1448 1120 L 1555.2490234375 1120 L 1555.2490234375 1164 L 1448 1164 L 1448 1120 Z Z" stroke-miterlimit="10"/></g><g transform="translate(-190,-902) scale(1,1)"><path fill="none" stroke="#000000" d="M 1448 1145 L 1555.2490234375 1145" stroke-miterlimit="10"/></g><g transform="translate(-190,-902) scale(1,1)"><path fill="none" stroke="#000000" d="M 1448 1155 L 1555.2490234375 1155" stroke-miterlimit="10"/></g><g transform="translate(-190,-902) scale(1,1)"><g><path fill="none" stroke="none"/><text fill="#000000" stroke="none" font-family="Arial" font-size="13px" font-style="normal" font-weight="bold" text-decoration="none" x="1452.5" y="1138">RecordManager</text></g></g><g transform="translate(-190,-902) scale(1,1)"><path fill="none" stroke="#000000" d="M 1316 1157 L 1314 1191" stroke-miterlimit="10"/></g><g transform="translate(-190,-902) scale(1,1)"><path fill="none" stroke="#000000" d="M 1310.394519116819 1180.6076707326501 L 1314 1191 L 1318.799026515331 1181.1020535207979" stroke-miterlimit="10"/></g><g transform="translate(-190,-902) scale(1,1)"><path fill="none" stroke="#000000" d="M 1501 1165 L 1502 1191" stroke-miterlimit="10"/></g><g transform="translate(-190,-902) scale(1,1)"><path fill="none" stroke="#000000" d="M 1497.4030090188141 1181.0066184942784 L 1502 1191 L 1505.81582433383 1180.6830486744702" stroke-miterlimit="10"/></g><g transform="translate(-190,-902) scale(1,1)"><rect fill="#C0C0C0" stroke="none" x="1319" y="1007" width="172.34619140625" height="48" opacity="0.2"/></g><g transform="translate(-190,-902) scale(1,1)"><rect fill="#ffffff" stroke="none" x="1312" y="1000" width="172.34619140625" height="48"/></g><g transform="translate(-190,-902) scale(1,1)"><path fill="none" stroke="#000000" d="M 1312 1000 L 1484.34619140625 1000 L 1484.34619140625 1048 L 1312 1048 L 1312 1000 Z Z" stroke-miterlimit="10"/></g><g transform="translate(-190,-902) scale(1,1)"><path fill="#ffffff" stroke="none" d="M 1458.34619140625 1017 C 1458.34619140625 1012.0294368 1462.37562820625 1008 1467.34619140625 1008 C 1472.31675460625 1008 1476.34619140625 1012.0294368 1476.34619140625 1017 C 1476.34619140625 1021.9705632 1472.31675460625 1026 1467.34619140625 1026 C 1462.37562820625 1026 1458.34619140625 1021.9705632 1458.34619140625 1017 Z"/></g><g transform="translate(-190,-902) scale(1,1)"><path fill="none" stroke="#000000" d="M 1458.34619140625 1017 C 1458.34619140625 1012.0294368 1462.37562820625 1008 1467.34619140625 1008 C 1472.31675460625 1008 1476.34619140625 1012.0294368 1476.34619140625 1017 C 1476.34619140625 1021.9705632 1472.31675460625 1026 1467.34619140625 1026 C 1462.37562820625 1026 1458.34619140625 1021.9705632 1458.34619140625 1017 Z" stroke-miterlimit="10"/></g><g transform="translate(-190,-902) scale(1,1)"><g><path fill="none" stroke="none"/><text fill="#000000" stroke="none" font-family="Arial" font-size="13px" font-style="normal" font-weight="normal" text-decoration="none" x="1354.0126953125" y="1016">«interface»</text></g></g><g transform="translate(-190,-902) scale(1,1)"><g><path fill="none" stroke="none"/><text fill="#000000" stroke="none" font-family="Arial" font-size="13px" font-style="normal" font-weight="bold" text-decoration="none" x="1321.5" y="1031">UserSystemInterface</text></g></g><g transform="translate(-190,-902) scale(1,1)"><path fill="none" stroke="#000000" d="M 1334 1111 L 1380 1049" stroke-miterlimit="10" stroke-dasharray="3"/></g><g transform="translate(-190,-902) scale(1,1)"><path fill="#FFFFFF" stroke="none" d="M 1374.6505137087624 1070.3397046938298 L 1380 1049 L 1361.127892070076 1060.306791865127"/></g><g transform="translate(-190,-902) scale(1,1)"><path fill="none" stroke="#000000" d="M 1374.6505137087624 1070.3397046938298 L 1380 1049 L 1361.127892070076 1060.306791865127 L 1374.6505137087624 1070.3397046938298" stroke-miterlimit="10"/></g><g transform="translate(-190,-902) scale(1,1)"><path fill="none" stroke="#000000" d="M 1481 1119 L 1420 1049" stroke-miterlimit="10" stroke-dasharray="3"/></g><g transform="translate(-190,-902) scale(1,1)"><path fill="#FFFFFF" stroke="none" d="M 1439.7005041925026 1058.7923508189394 L 1420 1049 L 1427.0061224394829 1069.8545977751423"/></g><g transform="translate(-190,-902) scale(1,1)"><path fill="none" stroke="#000000" d="M 1439.7005041925026 1058.7923508189394 L 1420 1049 L 1427.0061224394829 1069.8545977751423 L 1439.7005041925026 1058.7923508189394" stroke-miterlimit="10"/></g><g transform="translate(-190,-902) scale(1,1)"><rect fill="#C0C0C0" stroke="none" x="1471" y="1383" width="204.79999999999995" height="15" opacity="0.2"/></g><g transform="translate(-190,-902) scale(1,1)"><rect fill="#C0C0C0" stroke="none" x="1471" y="1397" width="512" height="346" opacity="0.2"/></g><g transform="translate(-190,-902) scale(1,1)"><rect fill="#ffffff" stroke="none" x="1464" y="1391" width="512" height="345"/></g><g transform="translate(-190,-902) scale(1,1)"><path fill="none" stroke="#000000" d="M 1464 1391 L 1976 1391 L 1976 1736 L 1464 1736 L 1464 1391 Z Z" stroke-miterlimit="10"/></g><g transform="translate(-190,-902) scale(1,1)"><rect fill="#ffffff" stroke="none" x="1464" y="1376" width="204.79999999999995" height="15"/></g><g transform="translate(-190,-902) scale(1,1)"><path fill="none" stroke="#000000" d="M 1464 1376 L 1668.8 1376 L 1668.8 1391 L 1464 1391 L 1464 1376 Z Z" stroke-miterlimit="10"/></g><g transform="translate(-190,-902) scale(1,1)"><rect fill="#ffffff" stroke="none" x="1464" y="1390" width="512" height="346"/></g><g transform="translate(-190,-902) scale(1,1)"><path fill="none" stroke="#000000" d="M 1464 1390 L 1976 1390 L 1976 1736 L 1464 1736 L 1464 1390 Z Z" stroke-miterlimit="10"/></g><g transform="translate(-190,-902) scale(1,1)"><g><path fill="none" stroke="none"/><text fill="#000000" stroke="none" font-family="Arial" font-size="13px" font-style="normal" font-weight="bold" text-decoration="none" x="1680.99365234375" y="1409">FundSystem</text></g></g><g transform="translate(-190,-902) scale(1,1)"><rect fill="#C0C0C0" stroke="none" x="1767" y="1503" width="94.2236328125" height="44" opacity="0.2"/></g><g transform="translate(-190,-902) scale(1,1)"><rect fill="#ffffff" stroke="none" x="1760" y="1496" width="94.2236328125" height="44"/></g><g transform="translate(-190,-902) scale(1,1)"><path fill="none" stroke="#000000" d="M 1760 1496 L 1854.2236328125 1496 L 1854.2236328125 1540 L 1760 1540 L 1760 1496 Z Z" stroke-miterlimit="10"/></g><g transform="translate(-190,-902) scale(1,1)"><path fill="none" stroke="#000000" d="M 1760 1521 L 1854.2236328125 1521" stroke-miterlimit="10"/></g><g transform="translate(-190,-902) scale(1,1)"><path fill="none" stroke="#000000" d="M 1760 1531 L 1854.2236328125 1531" stroke-miterlimit="10"/></g><g transform="translate(-190,-902) scale(1,1)"><g><path fill="none" stroke="none"/><text fill="#000000" stroke="none" font-family="Arial" font-size="13px" font-style="normal" font-weight="bold" text-decoration="none" x="1764.5" y="1514">FundManager</text></g></g><g transform="translate(-190,-902) scale(1,1)"><rect fill="#C0C0C0" stroke="none" x="1631" y="1639" width="78.31640625" height="44" opacity="0.2"/></g><g transform="translate(-190,-902) scale(1,1)"><rect fill="#ffffff" stroke="none" x="1624" y="1632" width="78.31640625" height="44"/></g><g transform="translate(-190,-902) scale(1,1)"><path fill="none" stroke="#000000" d="M 1624 1632 L 1702.31640625 1632 L 1702.31640625 1676 L 1624 1676 L 1624 1632 Z Z" stroke-miterlimit="10"/></g><g transform="translate(-190,-902) scale(1,1)"><path fill="none" stroke="#000000" d="M 1624 1657 L 1702.31640625 1657" stroke-miterlimit="10"/></g><g transform="translate(-190,-902) scale(1,1)"><path fill="none" stroke="#000000" d="M 1624 1667 L 1702.31640625 1667" stroke-miterlimit="10"/></g><g transform="translate(-190,-902) scale(1,1)"><g><path fill="none" stroke="none"/><text fill="#000000" stroke="none" font-family="Arial" font-size="13px" font-style="normal" font-weight="bold" text-decoration="none" x="1628.5" y="1650">FundEditor</text></g></g><g transform="translate(-190,-902) scale(1,1)"><rect fill="#C0C0C0" stroke="none" x="1639" y="1503" width="50.919921875" height="44" opacity="0.2"/></g><g transform="translate(-190,-902) scale(1,1)"><rect fill="#ffffff" stroke="none" x="1632" y="1496" width="50.919921875" height="44"/></g><g transform="translate(-190,-902) scale(1,1)"><path fill="none" stroke="#000000" d="M 1632 1496 L 1682.919921875 1496 L 1682.919921875 1540 L 1632 1540 L 1632 1496 Z Z" stroke-miterlimit="10"/></g><g transform="translate(-190,-902) scale(1,1)"><path fill="none" stroke="#000000" d="M 1632 1521 L 1682.919921875 1521" stroke-miterlimit="10"/></g><g transform="translate(-190,-902) scale(1,1)"><path fill="none" stroke="#000000" d="M 1632 1531 L 1682.919921875 1531" stroke-miterlimit="10"/></g><g transform="translate(-190,-902) scale(1,1)"><g><path fill="none" stroke="none"/><text fill="#000000" stroke="none" font-family="Arial" font-size="13px" font-style="normal" font-weight="bold" text-decoration="none" x="1641.578125" y="1514">Fund</text></g></g><g transform="translate(-190,-902) scale(1,1)"><path fill="none" stroke="#000000" d="M 1631 1531 L 1583 1554" stroke-miterlimit="10"/></g><g transform="translate(-190,-902) scale(1,1)"><path fill="#000000" stroke="none" d="M 1590.345845509067 1545.8122925212901 L 1583 1554 L 1593.9838806535774 1553.4047136924426 L 1602.839952631942 1544.4933560305278"/></g><g transform="translate(-190,-902) scale(1,1)"><path fill="none" stroke="#000000" d="M 1590.345845509067 1545.8122925212901 L 1583 1554 L 1593.9838806535774 1553.4047136924426 L 1602.839952631942 1544.4933560305278 L 1590.345845509067 1545.8122925212901" stroke-miterlimit="10"/></g><g transform="translate(-190,-902) scale(1,1)"><path fill="none" stroke="#000000" d="M 1759 1518 L 1684 1518" stroke-miterlimit="10"/></g><g transform="translate(-190,-902) scale(1,1)"><path fill="none" stroke="#000000" d="M 1694.162674857624 1513.7904822439841 L 1684 1518 L 1694.162674857624 1522.2095177560159" stroke-miterlimit="10"/></g><g transform="translate(-190,-902) scale(1,1)"><path fill="none" stroke="#000000" d="M 1662 1631 L 1658 1541" stroke-miterlimit="10"/></g><g transform="translate(-190,-902) scale(1,1)"><path fill="none" stroke="#000000" d="M 1662.656595356531 1550.965747321979 L 1658 1541 L 1654.2458626428818 1551.339557664808" stroke-miterlimit="10"/></g><g transform="translate(-190,-902) scale(1,1)"><path fill="none" stroke="#000000" d="M 1703 1656 L 1767 1659" stroke-miterlimit="10" stroke-dasharray="3"/></g><g transform="translate(-190,-902) scale(1,1)"><path fill="#FFFFFF" stroke="none" d="M 1746.3027342134128 1666.4580955316603 L 1767 1659 L 1747.09115308511 1649.638492935458"/></g><g transform="translate(-190,-902) scale(1,1)"><path fill="none" stroke="#000000" d="M 1746.3027342134128 1666.4580955316603 L 1767 1659 L 1747.09115308511 1649.638492935458 L 1746.3027342134128 1666.4580955316603" stroke-miterlimit="10"/></g><g transform="translate(-190,-902) scale(1,1)"><path fill="none" stroke="#000000" d="M 1815 1541 L 1847 1639" stroke-miterlimit="10" stroke-dasharray="3"/></g><g transform="translate(-190,-902) scale(1,1)"><path fill="#FFFFFF" stroke="none" d="M 1832.6877941383518 1622.2918952788234 L 1847 1639 L 1848.6941563306098 1617.0653280323718"/></g><g transform="translate(-190,-902) scale(1,1)"><path fill="none" stroke="#000000" d="M 1832.6877941383518 1622.2918952788234 L 1847 1639 L 1848.6941563306098 1617.0653280323718 L 1832.6877941383518 1622.2918952788234" stroke-miterlimit="10"/></g><g transform="translate(-190,-902) scale(1,1)"><rect fill="#C0C0C0" stroke="none" x="1775" y="1647" width="175.20263671875" height="48" opacity="0.2"/></g><g transform="translate(-190,-902) scale(1,1)"><rect fill="#ffffff" stroke="none" x="1768" y="1640" width="175.20263671875" height="48"/></g><g transform="translate(-190,-902) scale(1,1)"><path fill="none" stroke="#000000" d="M 1768 1640 L 1943.20263671875 1640 L 1943.20263671875 1688 L 1768 1688 L 1768 1640 Z Z" stroke-miterlimit="10"/></g><g transform="translate(-190,-902) scale(1,1)"><path fill="#ffffff" stroke="none" d="M 1917.20263671875 1657 C 1917.20263671875 1652.0294368 1921.23207351875 1648 1926.20263671875 1648 C 1931.17319991875 1648 1935.20263671875 1652.0294368 1935.20263671875 1657 C 1935.20263671875 1661.9705632 1931.17319991875 1666 1926.20263671875 1666 C 1921.23207351875 1666 1917.20263671875 1661.9705632 1917.20263671875 1657 Z"/></g><g transform="translate(-190,-902) scale(1,1)"><path fill="none" stroke="#000000" d="M 1917.20263671875 1657 C 1917.20263671875 1652.0294368 1921.23207351875 1648 1926.20263671875 1648 C 1931.17319991875 1648 1935.20263671875 1652.0294368 1935.20263671875 1657 C 1935.20263671875 1661.9705632 1931.17319991875 1666 1926.20263671875 1666 C 1921.23207351875 1666 1917.20263671875 1661.9705632 1917.20263671875 1657 Z" stroke-miterlimit="10"/></g><g transform="translate(-190,-902) scale(1,1)"><g><path fill="none" stroke="none"/><text fill="#000000" stroke="none" font-family="Arial" font-size="13px" font-style="normal" font-weight="normal" text-decoration="none" x="1811.44091796875" y="1656">«interface»</text></g></g><g transform="translate(-190,-902) scale(1,1)"><g><path fill="none" stroke="none"/><text fill="#000000" stroke="none" font-family="Arial" font-size="13px" font-style="normal" font-weight="bold" text-decoration="none" x="1777.5" y="1671">FundSystemInterface</text></g></g><g transform="translate(-190,-902) scale(1,1)"><rect fill="#C0C0C0" stroke="none" x="1511" y="1559" width="78.06884765625" height="44" opacity="0.2"/></g><g transform="translate(-190,-902) scale(1,1)"><rect fill="#ffffff" stroke="none" x="1504" y="1552" width="78.06884765625" height="44"/></g><g transform="translate(-190,-902) scale(1,1)"><path fill="none" stroke="#000000" d="M 1504 1552 L 1582.06884765625 1552 L 1582.06884765625 1596 L 1504 1596 L 1504 1552 Z Z" stroke-miterlimit="10"/></g><g transform="translate(-190,-902) scale(1,1)"><path fill="none" stroke="#000000" d="M 1504 1577 L 1582.06884765625 1577" stroke-miterlimit="10"/></g><g transform="translate(-190,-902) scale(1,1)"><path fill="none" stroke="#000000" d="M 1504 1587 L 1582.06884765625 1587" stroke-miterlimit="10"/></g><g transform="translate(-190,-902) scale(1,1)"><g><path fill="none" stroke="none"/><text fill="#000000" stroke="none" font-family="Arial" font-size="13px" font-style="normal" font-weight="bold" text-decoration="none" x="1508.5" y="1570">FundWorth</text></g></g><g transform="translate(-190,-902) scale(1,1)"><rect fill="#C0C0C0" stroke="none" x="207" y="1383" width="195.2" height="15" opacity="0.2"/></g><g transform="translate(-190,-902) scale(1,1)"><rect fill="#C0C0C0" stroke="none" x="207" y="1397" width="488" height="354" opacity="0.2"/></g><g transform="translate(-190,-902) scale(1,1)"><rect fill="#ffffff" stroke="none" x="200" y="1391" width="488" height="353"/></g><g transform="translate(-190,-902) scale(1,1)"><path fill="none" stroke="#000000" d="M 200 1391 L 688 1391 L 688 1744 L 200 1744 L 200 1391 Z Z" stroke-miterlimit="10"/></g><g transform="translate(-190,-902) scale(1,1)"><rect fill="#ffffff" stroke="none" x="200" y="1376" width="195.2" height="15"/></g><g transform="translate(-190,-902) scale(1,1)"><path fill="none" stroke="#000000" d="M 200 1376 L 395.2 1376 L 395.2 1391 L 200 1391 L 200 1376 Z Z" stroke-miterlimit="10"/></g><g transform="translate(-190,-902) scale(1,1)"><rect fill="#ffffff" stroke="none" x="200" y="1390" width="488" height="354"/></g><g transform="translate(-190,-902) scale(1,1)"><path fill="none" stroke="#000000" d="M 200 1390 L 688 1390 L 688 1744 L 200 1744 L 200 1390 Z Z" stroke-miterlimit="10"/></g><g transform="translate(-190,-902) scale(1,1)"><g><path fill="none" stroke="none"/><text fill="#000000" stroke="none" font-family="Arial" font-size="13px" font-style="normal" font-weight="bold" text-decoration="none" x="406.06640625" y="1409">CardSystem</text></g></g><g transform="translate(-190,-902) scale(1,1)"><rect fill="#C0C0C0" stroke="none" x="231" y="1567" width="76.17724609375" height="44" opacity="0.2"/></g><g transform="translate(-190,-902) scale(1,1)"><rect fill="#ffffff" stroke="none" x="224" y="1560" width="76.17724609375" height="44"/></g><g transform="translate(-190,-902) scale(1,1)"><path fill="none" stroke="#000000" d="M 224 1560 L 300.17724609375 1560 L 300.17724609375 1604 L 224 1604 L 224 1560 Z Z" stroke-miterlimit="10"/></g><g transform="translate(-190,-902) scale(1,1)"><path fill="none" stroke="#000000" d="M 224 1585 L 300.17724609375 1585" stroke-miterlimit="10"/></g><g transform="translate(-190,-902) scale(1,1)"><path fill="none" stroke="#000000" d="M 224 1595 L 300.17724609375 1595" stroke-miterlimit="10"/></g><g transform="translate(-190,-902) scale(1,1)"><g><path fill="none" stroke="none"/><text fill="#000000" stroke="none" font-family="Arial" font-size="13px" font-style="normal" font-weight="bold" text-decoration="none" x="228.5" y="1578">CreditCard</text></g></g><g transform="translate(-190,-902) scale(1,1)"><rect fill="#C0C0C0" stroke="none" x="383" y="1663" width="76.1708984375" height="44" opacity="0.2"/></g><g transform="translate(-190,-902) scale(1,1)"><rect fill="#ffffff" stroke="none" x="376" y="1656" width="76.1708984375" height="44"/></g><g transform="translate(-190,-902) scale(1,1)"><path fill="none" stroke="#000000" d="M 376 1656 L 452.1708984375 1656 L 452.1708984375 1700 L 376 1700 L 376 1656 Z Z" stroke-miterlimit="10"/></g><g transform="translate(-190,-902) scale(1,1)"><path fill="none" stroke="#000000" d="M 376 1681 L 452.1708984375 1681" stroke-miterlimit="10"/></g><g transform="translate(-190,-902) scale(1,1)"><path fill="none" stroke="#000000" d="M 376 1691 L 452.1708984375 1691" stroke-miterlimit="10"/></g><g transform="translate(-190,-902) scale(1,1)"><g><path fill="none" stroke="none"/><text fill="#000000" stroke="none" font-family="Arial" font-size="13px" font-style="normal" font-weight="bold" text-decoration="none" x="380.5" y="1674">CardEditor</text></g></g><g transform="translate(-190,-902) scale(1,1)"><rect fill="#C0C0C0" stroke="none" x="495" y="1575" width="173.05712890625" height="48" opacity="0.2"/></g><g transform="translate(-190,-902) scale(1,1)"><rect fill="#ffffff" stroke="none" x="488" y="1568" width="173.05712890625" height="48"/></g><g transform="translate(-190,-902) scale(1,1)"><path fill="none" stroke="#000000" d="M 488 1568 L 661.05712890625 1568 L 661.05712890625 1616 L 488 1616 L 488 1568 Z Z" stroke-miterlimit="10"/></g><g transform="translate(-190,-902) scale(1,1)"><path fill="#ffffff" stroke="none" d="M 635.05712890625 1585 C 635.05712890625 1580.0294368 639.08656570625 1576 644.05712890625 1576 C 649.02769210625 1576 653.05712890625 1580.0294368 653.05712890625 1585 C 653.05712890625 1589.9705632 649.02769210625 1594 644.05712890625 1594 C 639.08656570625 1594 635.05712890625 1589.9705632 635.05712890625 1585 Z"/></g><g transform="translate(-190,-902) scale(1,1)"><path fill="none" stroke="#000000" d="M 635.05712890625 1585 C 635.05712890625 1580.0294368 639.08656570625 1576 644.05712890625 1576 C 649.02769210625 1576 653.05712890625 1580.0294368 653.05712890625 1585 C 653.05712890625 1589.9705632 649.02769210625 1594 644.05712890625 1594 C 639.08656570625 1594 635.05712890625 1589.9705632 635.05712890625 1585 Z" stroke-miterlimit="10"/></g><g transform="translate(-190,-902) scale(1,1)"><g><path fill="none" stroke="none"/><text fill="#000000" stroke="none" font-family="Arial" font-size="13px" font-style="normal" font-weight="normal" text-decoration="none" x="530.3681640625" y="1584">«interface»</text></g></g><g transform="translate(-190,-902) scale(1,1)"><g><path fill="none" stroke="none"/><text fill="#000000" stroke="none" font-family="Arial" font-size="13px" font-style="normal" font-weight="bold" text-decoration="none" x="497.5" y="1599">CardSystemInterface</text></g></g><g transform="translate(-190,-902) scale(1,1)"><path fill="none" stroke="#000000" d="M 367 1524 L 301 1561" stroke-miterlimit="10"/></g><g transform="translate(-190,-902) scale(1,1)"><path fill="none" stroke="#000000" d="M 307.80622519294 1552.3585129391413 L 301 1561 L 311.9231820884796 1559.7022738879416" stroke-miterlimit="10"/></g><g transform="translate(-190,-902) scale(1,1)"><path fill="none" stroke="#000000" d="M 378 1655 L 298 1605" stroke-miterlimit="10"/></g><g transform="translate(-190,-902) scale(1,1)"><path fill="none" stroke="#000000" d="M 308.84897099203346 1606.8165429843568 L 298 1605 L 304.38689109480737 1613.9558708199186" stroke-miterlimit="10"/></g><g transform="translate(-190,-902) scale(1,1)"><path fill="none" stroke="#000000" d="M 449 1524 L 528 1567" stroke-miterlimit="10" stroke-dasharray="3"/></g><g transform="translate(-190,-902) scale(1,1)"><path fill="#FFFFFF" stroke="none" d="M 506.12292307736175 1564.677607845137 L 528 1567 L 514.1727497967408 1549.8883913141847"/></g><g transform="translate(-190,-902) scale(1,1)"><path fill="none" stroke="#000000" d="M 506.12292307736175 1564.677607845137 L 528 1567 L 514.1727497967408 1549.8883913141847 L 506.12292307736175 1564.677607845137" stroke-miterlimit="10"/></g><g transform="translate(-190,-902) scale(1,1)"><path fill="none" stroke="#000000" d="M 453 1657 L 527 1617" stroke-miterlimit="10" stroke-dasharray="3"/></g><g transform="translate(-190,-902) scale(1,1)"><path fill="#FFFFFF" stroke="none" d="M 513.1230522636824 1634.0713303969992 L 527 1617 L 505.11626266588434 1619.2587696410728"/></g><g transform="translate(-190,-902) scale(1,1)"><path fill="none" stroke="#000000" d="M 513.1230522636824 1634.0713303969992 L 527 1617 L 505.11626266588434 1619.2587696410728 L 513.1230522636824 1634.0713303969992" stroke-miterlimit="10"/></g><g transform="translate(-190,-902) scale(1,1)"><rect fill="#C0C0C0" stroke="none" x="791" y="1415" width="230.39999999999998" height="15" opacity="0.2"/></g><g transform="translate(-190,-902) scale(1,1)"><rect fill="#C0C0C0" stroke="none" x="791" y="1429" width="576" height="354" opacity="0.2"/></g><g transform="translate(-190,-902) scale(1,1)"><rect fill="#ffffff" stroke="none" x="784" y="1423" width="576" height="353"/></g><g transform="translate(-190,-902) scale(1,1)"><path fill="none" stroke="#000000" d="M 784 1423 L 1360 1423 L 1360 1776 L 784 1776 L 784 1423 Z Z" stroke-miterlimit="10"/></g><g transform="translate(-190,-902) scale(1,1)"><rect fill="#ffffff" stroke="none" x="784" y="1408" width="230.39999999999998" height="15"/></g><g transform="translate(-190,-902) scale(1,1)"><path fill="none" stroke="#000000" d="M 784 1408 L 1014.4 1408 L 1014.4 1423 L 784 1423 L 784 1408 Z Z" stroke-miterlimit="10"/></g><g transform="translate(-190,-902) scale(1,1)"><rect fill="#ffffff" stroke="none" x="784" y="1422" width="576" height="354"/></g><g transform="translate(-190,-902) scale(1,1)"><path fill="none" stroke="#000000" d="M 784 1422 L 1360 1422 L 1360 1776 L 784 1776 L 784 1422 Z Z" stroke-miterlimit="10"/></g><g transform="translate(-190,-902) scale(1,1)"><g><path fill="none" stroke="none"/><text fill="#000000" stroke="none" font-family="Arial" font-size="13px" font-style="normal" font-weight="bold" text-decoration="none" x="1019.974609375" y="1441">BusinessSystem</text></g></g><g transform="translate(-190,-902) scale(1,1)"><rect fill="#C0C0C0" stroke="none" x="991" y="1495" width="127.49169921875" height="44" opacity="0.2"/></g><g transform="translate(-190,-902) scale(1,1)"><rect fill="#ffffff" stroke="none" x="984" y="1488" width="127.49169921875" height="44"/></g><g transform="translate(-190,-902) scale(1,1)"><path fill="none" stroke="#000000" d="M 984 1488 L 1111.49169921875 1488 L 1111.49169921875 1532 L 984 1532 L 984 1488 Z Z" stroke-miterlimit="10"/></g><g transform="translate(-190,-902) scale(1,1)"><path fill="none" stroke="#000000" d="M 984 1513 L 1111.49169921875 1513" stroke-miterlimit="10"/></g><g transform="translate(-190,-902) scale(1,1)"><path fill="none" stroke="#000000" d="M 984 1523 L 1111.49169921875 1523" stroke-miterlimit="10"/></g><g transform="translate(-190,-902) scale(1,1)"><g><path fill="none" stroke="none"/><text fill="#000000" stroke="none" font-family="Arial" font-size="13px" font-style="normal" font-weight="bold" text-decoration="none" x="992.114990234375" y="1506">BusinessManager</text></g></g><g transform="translate(-190,-902) scale(1,1)"><rect fill="#C0C0C0" stroke="none" x="831" y="1575" width="66.8017578125" height="44" opacity="0.2"/></g><g transform="translate(-190,-902) scale(1,1)"><rect fill="#ffffff" stroke="none" x="824" y="1568" width="66.8017578125" height="44"/></g><g transform="translate(-190,-902) scale(1,1)"><path fill="none" stroke="#000000" d="M 824 1568 L 890.8017578125 1568 L 890.8017578125 1612 L 824 1612 L 824 1568 Z Z" stroke-miterlimit="10"/></g><g transform="translate(-190,-902) scale(1,1)"><path fill="none" stroke="#000000" d="M 824 1593 L 890.8017578125 1593" stroke-miterlimit="10"/></g><g transform="translate(-190,-902) scale(1,1)"><path fill="none" stroke="#000000" d="M 824 1603 L 890.8017578125 1603" stroke-miterlimit="10"/></g><g transform="translate(-190,-902) scale(1,1)"><g><path fill="none" stroke="none"/><text fill="#000000" stroke="none" font-family="Arial" font-size="13px" font-style="normal" font-weight="bold" text-decoration="none" x="828.5" y="1586">Business</text></g></g><g transform="translate(-190,-902) scale(1,1)"><rect fill="#C0C0C0" stroke="none" x="1127" y="1615" width="201.24072265625" height="48" opacity="0.2"/></g><g transform="translate(-190,-902) scale(1,1)"><rect fill="#ffffff" stroke="none" x="1120" y="1608" width="201.24072265625" height="48"/></g><g transform="translate(-190,-902) scale(1,1)"><path fill="none" stroke="#000000" d="M 1120 1608 L 1321.24072265625 1608 L 1321.24072265625 1656 L 1120 1656 L 1120 1608 Z Z" stroke-miterlimit="10"/></g><g transform="translate(-190,-902) scale(1,1)"><path fill="#ffffff" stroke="none" d="M 1295.24072265625 1625 C 1295.24072265625 1620.0294368 1299.27015945625 1616 1304.24072265625 1616 C 1309.21128585625 1616 1313.24072265625 1620.0294368 1313.24072265625 1625 C 1313.24072265625 1629.9705632 1309.21128585625 1634 1304.24072265625 1634 C 1299.27015945625 1634 1295.24072265625 1629.9705632 1295.24072265625 1625 Z"/></g><g transform="translate(-190,-902) scale(1,1)"><path fill="none" stroke="#000000" d="M 1295.24072265625 1625 C 1295.24072265625 1620.0294368 1299.27015945625 1616 1304.24072265625 1616 C 1309.21128585625 1616 1313.24072265625 1620.0294368 1313.24072265625 1625 C 1313.24072265625 1629.9705632 1309.21128585625 1634 1304.24072265625 1634 C 1299.27015945625 1634 1295.24072265625 1629.9705632 1295.24072265625 1625 Z" stroke-miterlimit="10"/></g><g transform="translate(-190,-902) scale(1,1)"><g><path fill="none" stroke="none"/><text fill="#000000" stroke="none" font-family="Arial" font-size="13px" font-style="normal" font-weight="normal" text-decoration="none" x="1176.4599609375" y="1624">«interface»</text></g></g><g transform="translate(-190,-902) scale(1,1)"><g><path fill="none" stroke="none"/><text fill="#000000" stroke="none" font-family="Arial" font-size="13px" font-style="normal" font-weight="bold" text-decoration="none" x="1129.5" y="1639">BusinessSystemInterface</text></g></g><g transform="translate(-190,-902) scale(1,1)"><path fill="none" stroke="#000000" d="M 992 1533 L 892 1575" stroke-miterlimit="10"/></g><g transform="translate(-190,-902) scale(1,1)"><path fill="none" stroke="#000000" d="M 899.7397423452363 1567.183582122906 L 892 1575 L 902.9998663824342 1574.9457822114723" stroke-miterlimit="10"/></g><g transform="translate(-190,-902) scale(1,1)"><path fill="none" stroke="#000000" d="M 1019 1695 L 892 1613" stroke-miterlimit="10"/></g><g transform="translate(-190,-902) scale(1,1)"><path fill="none" stroke="#000000" d="M 902.8210463410533 1614.9760961729576 L 892 1613 L 898.2543242431176 1622.0489462514677" stroke-miterlimit="10"/></g><g transform="translate(-190,-902) scale(1,1)"><path fill="none" stroke="#000000" d="M 1080 1533 L 1185 1607" stroke-miterlimit="10" stroke-dasharray="3"/></g><g transform="translate(-190,-902) scale(1,1)"><path fill="#FFFFFF" stroke="none" d="M 1163.5361083632563 1602.172852207968 L 1185 1607 L 1173.2360456105407 1588.4094277354698"/></g><g transform="translate(-190,-902) scale(1,1)"><path fill="none" stroke="#000000" d="M 1163.5361083632563 1602.172852207968 L 1185 1607 L 1173.2360456105407 1588.4094277354698 L 1163.5361083632563 1602.172852207968" stroke-miterlimit="10"/></g><g transform="translate(-190,-902) scale(1,1)"><path fill="none" stroke="#000000" d="M 1098 1695 L 1172 1657" stroke-miterlimit="10" stroke-dasharray="3"/></g><g transform="translate(-190,-902) scale(1,1)"><path fill="#FFFFFF" stroke="none" d="M 1157.7650941260974 1673.7740112901217 L 1172 1657 L 1150.0733843960663 1658.7954186579561"/></g><g transform="translate(-190,-902) scale(1,1)"><path fill="none" stroke="#000000" d="M 1157.7650941260974 1673.7740112901217 L 1172 1657 L 1150.0733843960663 1658.7954186579561 L 1157.7650941260974 1673.7740112901217" stroke-miterlimit="10"/></g><g transform="translate(-190,-902) scale(1,1)"><rect fill="#C0C0C0" stroke="none" x="575" y="1167" width="198.33984375" height="48" opacity="0.2"/></g><g transform="translate(-190,-902) scale(1,1)"><rect fill="#ffffff" stroke="none" x="568" y="1160" width="198.33984375" height="48"/></g><g transform="translate(-190,-902) scale(1,1)"><path fill="none" stroke="#000000" d="M 568 1160 L 766.33984375 1160 L 766.33984375 1208 L 568 1208 L 568 1160 Z Z" stroke-miterlimit="10"/></g><g transform="translate(-190,-902) scale(1,1)"><path fill="#ffffff" stroke="none" d="M 740.33984375 1177 C 740.33984375 1172.0294368 744.36928055 1168 749.33984375 1168 C 754.31040695 1168 758.33984375 1172.0294368 758.33984375 1177 C 758.33984375 1181.9705632 754.31040695 1186 749.33984375 1186 C 744.36928055 1186 740.33984375 1181.9705632 740.33984375 1177 Z"/></g><g transform="translate(-190,-902) scale(1,1)"><path fill="none" stroke="#000000" d="M 740.33984375 1177 C 740.33984375 1172.0294368 744.36928055 1168 749.33984375 1168 C 754.31040695 1168 758.33984375 1172.0294368 758.33984375 1177 C 758.33984375 1181.9705632 754.31040695 1186 749.33984375 1186 C 744.36928055 1186 740.33984375 1181.9705632 740.33984375 1177 Z" stroke-miterlimit="10"/></g><g transform="translate(-190,-902) scale(1,1)"><g><path fill="none" stroke="none"/><text fill="#000000" stroke="none" font-family="Arial" font-size="13px" font-style="normal" font-weight="normal" text-decoration="none" x="623.009521484375" y="1176">«interface»</text></g></g><g transform="translate(-190,-902) scale(1,1)"><g><path fill="none" stroke="none"/><text fill="#000000" stroke="none" font-family="Arial" font-size="13px" font-style="normal" font-weight="bold" text-decoration="none" x="577.5" y="1191">OperatorSystemInterface</text></g></g><g transform="translate(-190,-902) scale(1,1)"><rect fill="#C0C0C0" stroke="none" x="631" y="983" width="63.90087890625" height="44" opacity="0.2"/></g><g transform="translate(-190,-902) scale(1,1)"><rect fill="#ffffff" stroke="none" x="624" y="976" width="63.90087890625" height="44"/></g><g transform="translate(-190,-902) scale(1,1)"><path fill="none" stroke="#000000" d="M 624 976 L 687.90087890625 976 L 687.90087890625 1020 L 624 1020 L 624 976 Z Z" stroke-miterlimit="10"/></g><g transform="translate(-190,-902) scale(1,1)"><path fill="none" stroke="#000000" d="M 624 1001 L 687.90087890625 1001" stroke-miterlimit="10"/></g><g transform="translate(-190,-902) scale(1,1)"><path fill="none" stroke="#000000" d="M 624 1011 L 687.90087890625 1011" stroke-miterlimit="10"/></g><g transform="translate(-190,-902) scale(1,1)"><g><path fill="none" stroke="none"/><text fill="#000000" stroke="none" font-family="Arial" font-size="13px" font-style="normal" font-weight="bold" text-decoration="none" x="628.5" y="994">Operator</text></g></g><g transform="translate(-190,-902) scale(1,1)"><rect fill="#C0C0C0" stroke="none" x="375" y="1487" width="80.296875" height="44" opacity="0.2"/></g><g transform="translate(-190,-902) scale(1,1)"><rect fill="#ffffff" stroke="none" x="368" y="1480" width="80.296875" height="44"/></g><g transform="translate(-190,-902) scale(1,1)"><path fill="none" stroke="#000000" d="M 368 1480 L 448.296875 1480 L 448.296875 1524 L 368 1524 L 368 1480 Z Z" stroke-miterlimit="10"/></g><g transform="translate(-190,-902) scale(1,1)"><path fill="none" stroke="#000000" d="M 368 1505 L 448.296875 1505" stroke-miterlimit="10"/></g><g transform="translate(-190,-902) scale(1,1)"><path fill="none" stroke="#000000" d="M 368 1515 L 448.296875 1515" stroke-miterlimit="10"/></g><g transform="translate(-190,-902) scale(1,1)"><g><path fill="none" stroke="none"/><text fill="#000000" stroke="none" font-family="Arial" font-size="13px" font-style="normal" font-weight="bold" text-decoration="none" x="372.5" y="1498">CardViewer</text></g></g><g transform="translate(-190,-902) scale(1,1)"><rect fill="#C0C0C0" stroke="none" x="1007" y="1703" width="108.48046875" height="44" opacity="0.2"/></g><g transform="translate(-190,-902) scale(1,1)"><rect fill="#ffffff" stroke="none" x="1000" y="1696" width="108.48046875" height="44"/></g><g transform="translate(-190,-902) scale(1,1)"><path fill="none" stroke="#000000" d="M 1000 1696 L 1108.48046875 1696 L 1108.48046875 1740 L 1000 1740 L 1000 1696 Z Z" stroke-miterlimit="10"/></g><g transform="translate(-190,-902) scale(1,1)"><path fill="none" stroke="#000000" d="M 1000 1721 L 1108.48046875 1721" stroke-miterlimit="10"/></g><g transform="translate(-190,-902) scale(1,1)"><path fill="none" stroke="#000000" d="M 1000 1731 L 1108.48046875 1731" stroke-miterlimit="10"/></g><g transform="translate(-190,-902) scale(1,1)"><g><path fill="none" stroke="none"/><text fill="#000000" stroke="none" font-family="Arial" font-size="13px" font-style="normal" font-weight="bold" text-decoration="none" x="1004.5" y="1714">BusinessViewer</text></g></g><g transform="translate(-190,-902) scale(1,1)"><path fill="none" stroke="#000000" d="M 1119 1626 L 662 1597" stroke-miterlimit="10" stroke-dasharray="3"/></g><g transform="translate(-190,-902) scale(1,1)"><path fill="none" stroke="#000000" d="M 672.408863296368 1593.442533924614 L 662 1597 L 671.8756862070521 1601.8446694355591" stroke-miterlimit="10"/></g><g transform="translate(-190,-902) scale(1,1)"><path fill="none" stroke="#000000" d="M 1322 1637 L 1767 1660" stroke-miterlimit="10" stroke-dasharray="3"/></g><g transform="translate(-190,-902) scale(1,1)"><path fill="none" stroke="#000000" d="M 1756.6335916342207 1663.6793447234395 L 1767 1660 L 1757.0681527437416 1655.2715319522754" stroke-miterlimit="10"/></g><g transform="translate(-190,-902) scale(1,1)"><path fill="none" stroke="#000000" d="M 1227 1607 L 1391 1049" stroke-miterlimit="10" stroke-dasharray="3"/></g><g transform="translate(-190,-902) scale(1,1)"><path fill="none" stroke="#000000" d="M 1392.173024035499 1059.9372763799834 L 1391 1049 L 1384.0956309539986 1057.563275545994" stroke-miterlimit="10"/></g><g transform="translate(-190,-902) scale(1,1)"><path fill="none" stroke="#000000" d="M 610 1567 L 1362 1049" stroke-miterlimit="10" stroke-dasharray="3"/></g><g transform="translate(-190,-902) scale(1,1)"><path fill="none" stroke="#000000" d="M 1356.0186714468323 1058.2316687949178 L 1362 1049 L 1351.2427864129957 1051.298337626105" stroke-miterlimit="10"/></g><g transform="translate(-190,-902) scale(1,1)"><path fill="none" stroke="#000000" d="M 1793 1639 L 729 1209" stroke-miterlimit="10" stroke-dasharray="3"/></g><g transform="translate(-190,-902) scale(1,1)"><path fill="none" stroke="#000000" d="M 739.9995901090884 1208.9050398397 L 729 1209 L 736.8450317296995 1216.7107377831182" stroke-miterlimit="10"/></g><g transform="translate(-190,-902) scale(1,1)"><path fill="none" stroke="#000000" d="M 580 1567 L 661 1209" stroke-miterlimit="10" stroke-dasharray="3"/></g><g transform="translate(-190,-902) scale(1,1)"><path fill="none" stroke="#000000" d="M 662.8630499279164 1219.8410813559392 L 661 1209 L 654.6515730955392 1217.9831773798985" stroke-miterlimit="10"/></g><g transform="translate(-190,-902) scale(1,1)"><path fill="none" stroke="#000000" d="M 1311 1043 L 767 1162" stroke-miterlimit="10" stroke-dasharray="3"/></g><g transform="translate(-190,-902) scale(1,1)"><path fill="none" stroke="#000000" d="M 776.0283564394689 1155.7159901335294 L 767 1162 L 777.8274780509422 1163.9405460716932" stroke-miterlimit="10"/></g></g></svg>